<svg id="Layer_1" data-name="Layer 1" xmlns="http://www.w3.org/2000/svg" viewBox="0 0 1133.86 466.88"><defs><style>.cls-1{fill:#fff;}</style></defs><path class="cls-1" d="M55.1,523.23,69.35,483.3H80.11l14.41,39.93q2.7,7.26-6.79,7.07H86.24l-3.9-11.76H66.93L63,530.3H61.14Q52.68,530.18,55.1,523.23Zm14.22-12.47H79.91l-5.29-16Z" transform="translate(-54.56 -64.2)"/><path class="cls-1" d="M128.82,521.93a4.19,4.19,0,0,1,2,.42,3.6,3.6,0,0,1,1.31,1.13,4.49,4.49,0,0,1,.71,1.64,8.7,8.7,0,0,1,.21,2v3.23H102V494.83h0V487.5a3.61,3.61,0,0,1,.5-2,3.72,3.72,0,0,1,1.36-1.31,6,6,0,0,1,2-.71,13.12,13.12,0,0,1,2.39-.21h3.94v38.63Z" transform="translate(-54.56 -64.2)"/><path class="cls-1" d="M139,487.5a3.69,3.69,0,0,1,.5-2,3.88,3.88,0,0,1,1.36-1.31,5.94,5.94,0,0,1,2-.71,13,13,0,0,1,2.39-.21h13a21.45,21.45,0,0,1,7.62,1.21,14.84,14.84,0,0,1,5.27,3.26,12.83,12.83,0,0,1,3,4.75,16.44,16.44,0,0,1,.53,9.48,14.67,14.67,0,0,1-1.43,3.72,13.75,13.75,0,0,1-2.6,3.28,14.18,14.18,0,0,1-3.95,2.53l6,10.92q4.31,7.72-5.23,7.85h-2l-9-17.12h-7.3V526.1a3.69,3.69,0,0,1-.5,2,3.88,3.88,0,0,1-1.36,1.31,6.22,6.22,0,0,1-2,.71,12.74,12.74,0,0,1-2.37.21h-3.95v-9.75h0Zm18.51,17.93a9.17,9.17,0,0,0,3.35-.55,6,6,0,0,0,2.24-1.51,5.85,5.85,0,0,0,1.28-2.22,9.14,9.14,0,0,0,.4-2.77,8.4,8.4,0,0,0-.43-2.73,6.15,6.15,0,0,0-1.36-2.23,6.38,6.38,0,0,0-2.31-1.48,9.23,9.23,0,0,0-3.33-.53h-8.14v14Z" transform="translate(-54.56 -64.2)"/><path class="cls-1" d="M181.84,523.23l14.24-39.93h10.76l14.41,39.93q2.72,7.26-6.79,7.07H213l-3.91-11.76H193.66l-3.94,11.76h-1.84Q179.4,530.18,181.84,523.23Zm14.21-12.47h10.6l-5.3-16Z" transform="translate(-54.56 -64.2)"/><path class="cls-1" d="M263.31,492.5l.29,1.39a4.38,4.38,0,0,1,.07.71,2.64,2.64,0,0,1-.39,1.33,3.5,3.5,0,0,1-1.18,1.18,5.5,5.5,0,0,1-1.86.71A11.48,11.48,0,0,1,258,498h-3.68v-.78l-.06-.45a6.27,6.27,0,0,0-2.43-4.49,9.32,9.32,0,0,0-5.84-1.65,11.84,11.84,0,0,0-3.14.39,7.94,7.94,0,0,0-2.44,1.1,5,5,0,0,0-1.58,1.74,4.76,4.76,0,0,0-.57,2.33,3.63,3.63,0,0,0,.57,2,5,5,0,0,0,1.55,1.51,10.28,10.28,0,0,0,2.31,1.06c.88.29,1.83.56,2.84.79s1.76.42,2.64.62l2.66.58a34.58,34.58,0,0,1,6,1.91,15.56,15.56,0,0,1,4.39,2.74,10.69,10.69,0,0,1,2.7,3.78,12.76,12.76,0,0,1,.92,5,13.81,13.81,0,0,1-1.32,6.07,13.31,13.31,0,0,1-3.8,4.69,18.17,18.17,0,0,1-6,3,27.9,27.9,0,0,1-8,1.07,26.77,26.77,0,0,1-7.75-1,18.2,18.2,0,0,1-5.85-2.9,13,13,0,0,1-3.74-4.53,12,12,0,0,1-1-2.68l-.13-1.42a3.88,3.88,0,0,1,.47-2,3.76,3.76,0,0,1,1.26-1.31,5.5,5.5,0,0,1,1.86-.71,11.48,11.48,0,0,1,2.23-.21h3.68v1.91l.07.48a6.09,6.09,0,0,0,1,2.62,6.93,6.93,0,0,0,2,1.95,9.92,9.92,0,0,0,2.86,1.23,13.74,13.74,0,0,0,3.57.44,13.47,13.47,0,0,0,3.31-.39,9.17,9.17,0,0,0,2.68-1.13,5.72,5.72,0,0,0,1.79-1.81,4.59,4.59,0,0,0,.65-2.42A4.29,4.29,0,0,0,254,515a5.09,5.09,0,0,0-1.55-1.59,9.58,9.58,0,0,0-2.38-1.15c-.91-.31-1.92-.6-3-.86L241.15,510c-.78-.19-1.54-.39-2.29-.61a22.58,22.58,0,0,1-2.27-.78,16.54,16.54,0,0,1-4-2.18A12.17,12.17,0,0,1,230,503.7a10.54,10.54,0,0,1-1.54-3.25,13.68,13.68,0,0,1-.48-3.65,12.72,12.72,0,0,1,1.27-5.65,13.23,13.23,0,0,1,3.65-4.53,18.05,18.05,0,0,1,5.72-3,26.38,26.38,0,0,1,15,0,17.31,17.31,0,0,1,5.59,3,12.59,12.59,0,0,1,4.13,5.92Z" transform="translate(-54.56 -64.2)"/><path class="cls-1" d="M301.56,502.2q0-7.33,0-14.7a3.61,3.61,0,0,1,.5-2,3.72,3.72,0,0,1,1.36-1.31,6,6,0,0,1,2-.71,13.12,13.12,0,0,1,2.39-.21h3.94v42.8a3.61,3.61,0,0,1-.5,2,3.77,3.77,0,0,1-1.35,1.31,6.22,6.22,0,0,1-2,.71,12.93,12.93,0,0,1-2.38.21h-3.94V510.56H281.34V526.1a3.69,3.69,0,0,1-.5,2,3.88,3.88,0,0,1-1.36,1.31,6.22,6.22,0,0,1-2,.71,12.85,12.85,0,0,1-2.38.21h-3.94v-.74q0-10.6,0-21t0-21a3.69,3.69,0,0,1,.5-2,3.8,3.8,0,0,1,1.36-1.31,6,6,0,0,1,2-.71,13.23,13.23,0,0,1,2.4-.21h3.94v18.9Z" transform="translate(-54.56 -64.2)"/><path class="cls-1" d="M320.2,499.87V487.5a3.69,3.69,0,0,1,.5-2,3.8,3.8,0,0,1,1.36-1.31,6,6,0,0,1,2-.71,13.12,13.12,0,0,1,2.39-.21H338a27.72,27.72,0,0,1,9.79,1.61,19.25,19.25,0,0,1,7.17,4.64,19.83,19.83,0,0,1,4.42,7.35,29.25,29.25,0,0,1,1.52,9.79,30.09,30.09,0,0,1-1.5,9.82,20.26,20.26,0,0,1-4.41,7.43,19.2,19.2,0,0,1-7.19,4.71,27.1,27.1,0,0,1-9.8,1.65h-17.8V499.93Zm10.18,22.06h6.75a14.25,14.25,0,0,0,6.62-1.34,11.06,11.06,0,0,0,4.09-3.5,13.43,13.43,0,0,0,2.08-4.9,26,26,0,0,0,.58-5.47,24.86,24.86,0,0,0-.26-3.64,17.19,17.19,0,0,0-.85-3.48,13.53,13.53,0,0,0-1.6-3.12A10.27,10.27,0,0,0,345.3,494a12,12,0,0,0-3.5-1.68,16.1,16.1,0,0,0-4.67-.62h-6.75Z" transform="translate(-54.56 -64.2)"/><path class="cls-1" d="M373.73,483.3h3.94v42.8a3.69,3.69,0,0,1-.5,2,3.8,3.8,0,0,1-1.36,1.31,6.13,6.13,0,0,1-2,.71,12.74,12.74,0,0,1-2.37.21h-3.94v-.74q0-10.6,0-21t0-21a3.61,3.61,0,0,1,.5-2,3.77,3.77,0,0,1,1.35-1.31,6,6,0,0,1,2-.71A13,13,0,0,1,373.73,483.3Z" transform="translate(-54.56 -64.2)"/><path class="cls-1" d="M420.57,526.1a3.61,3.61,0,0,1-.5,2,3.77,3.77,0,0,1-1.35,1.31,6.34,6.34,0,0,1-2,.71,13.12,13.12,0,0,1-2.39.21H410.4V491.66h-9.6a3.91,3.91,0,0,1-2-.46,4,4,0,0,1-1.31-1.26,5.5,5.5,0,0,1-.71-1.86,11.56,11.56,0,0,1-.21-2.23V483.3h37.73v2.55a11.56,11.56,0,0,1-.21,2.23,5.3,5.3,0,0,1-.71,1.86,3.59,3.59,0,0,1-3.28,1.72h-9.56Z" transform="translate(-54.56 -64.2)"/><path class="cls-1" d="M440,487.5a3.69,3.69,0,0,1,.5-2,3.88,3.88,0,0,1,1.36-1.31,6,6,0,0,1,2-.71,13.23,13.23,0,0,1,2.4-.21h13.05a21.45,21.45,0,0,1,7.62,1.21,14.84,14.84,0,0,1,5.27,3.26,13,13,0,0,1,3.05,4.75,16.33,16.33,0,0,1,1,5.67,16.78,16.78,0,0,1-.45,3.81,14.33,14.33,0,0,1-1.44,3.72,13.27,13.27,0,0,1-2.6,3.28,14.13,14.13,0,0,1-3.94,2.53l6,10.92q4.29,7.72-5.23,7.85h-2l-9-17.12h-7.3V526.1a3.69,3.69,0,0,1-.5,2,3.88,3.88,0,0,1-1.36,1.31,6.22,6.22,0,0,1-2,.71,12.85,12.85,0,0,1-2.38.21h-3.94v-9.75h0Zm18.51,17.93a9.17,9.17,0,0,0,3.35-.55,6,6,0,0,0,2.24-1.51,5.85,5.85,0,0,0,1.28-2.22,9.14,9.14,0,0,0,.4-2.77,8.14,8.14,0,0,0-.44-2.73,6,6,0,0,0-1.35-2.23,6.38,6.38,0,0,0-2.31-1.48,9.23,9.23,0,0,0-3.33-.53h-8.14v14Z" transform="translate(-54.56 -64.2)"/><path class="cls-1" d="M482.83,523.23l14.24-39.93h10.76l14.41,39.93q2.71,7.26-6.79,7.07H514l-3.91-11.76H494.65l-3.94,11.76h-1.84Q480.4,530.18,482.83,523.23ZM497,510.76h10.6l-5.3-16Z" transform="translate(-54.56 -64.2)"/><path class="cls-1" d="M529.7,499.87V487.5a3.69,3.69,0,0,1,.5-2,3.8,3.8,0,0,1,1.36-1.31,6,6,0,0,1,2-.71,13.12,13.12,0,0,1,2.39-.21h11.54a27.72,27.72,0,0,1,9.79,1.61,19.25,19.25,0,0,1,7.17,4.64,19.83,19.83,0,0,1,4.42,7.35,29.25,29.25,0,0,1,1.52,9.79,30.09,30.09,0,0,1-1.5,9.82,20.26,20.26,0,0,1-4.41,7.43,19.2,19.2,0,0,1-7.19,4.71,27.1,27.1,0,0,1-9.8,1.65h-17.8V499.93Zm10.18,22.06h6.75a14.25,14.25,0,0,0,6.62-1.34,11.06,11.06,0,0,0,4.09-3.5,13.43,13.43,0,0,0,2.08-4.9,26,26,0,0,0,.58-5.47,24.86,24.86,0,0,0-.26-3.64,17.19,17.19,0,0,0-.85-3.48,13.53,13.53,0,0,0-1.6-3.12A10.27,10.27,0,0,0,554.8,494a12,12,0,0,0-3.5-1.68,16.1,16.1,0,0,0-4.67-.62h-6.75Z" transform="translate(-54.56 -64.2)"/><path class="cls-1" d="M583.23,483.3h3.94v42.8a3.69,3.69,0,0,1-.5,2,3.8,3.8,0,0,1-1.36,1.31,6.13,6.13,0,0,1-2,.71,12.74,12.74,0,0,1-2.37.21H577v-.74q0-10.6,0-21t0-21a3.61,3.61,0,0,1,.5-2,3.77,3.77,0,0,1,1.35-1.31,6,6,0,0,1,2-.71A13,13,0,0,1,583.23,483.3Z" transform="translate(-54.56 -64.2)"/><path class="cls-1" d="M626.91,530.3l-21.62-30.14v21.48h0l0,4.46a3.6,3.6,0,0,1-1.79,3.28,5.87,5.87,0,0,1-1.91.71,12.1,12.1,0,0,1-2.31.21h-3.84l0-42.8a3.79,3.79,0,0,1,.49-2,3.68,3.68,0,0,1,1.32-1.31,5.82,5.82,0,0,1,1.94-.71,16.86,16.86,0,0,1,3-.21h2L627,513.37V508.5q0-10.44,0-21a3.88,3.88,0,0,1,.47-2,3.68,3.68,0,0,1,1.26-1.31,5.3,5.3,0,0,1,1.86-.71,11.48,11.48,0,0,1,2.23-.21h3.68v42.8a3.88,3.88,0,0,1-.47,2,3.65,3.65,0,0,1-1.28,1.31,5.56,5.56,0,0,1-1.84.71,11,11,0,0,1-2.19.21Z" transform="translate(-54.56 -64.2)"/><path class="cls-1" d="M665,531.08a25,25,0,0,1-9.82-1.81,19.73,19.73,0,0,1-7.16-5.06,21.44,21.44,0,0,1-4.36-7.74,31.46,31.46,0,0,1-1.47-9.85,30.49,30.49,0,0,1,1.45-9.61,21.49,21.49,0,0,1,4.32-7.64,19.65,19.65,0,0,1,7.09-5,24.82,24.82,0,0,1,9.79-1.81,25.3,25.3,0,0,1,7.56,1.08,20.57,20.57,0,0,1,6.36,3.32,18.51,18.51,0,0,1,2.87,2.68,8.66,8.66,0,0,1,1.67,2.84,10.63,10.63,0,0,1,.63,2.68,4.22,4.22,0,0,1-.42,2,3.6,3.6,0,0,1-1.13,1.31,4.72,4.72,0,0,1-1.65.71,9,9,0,0,1-2,.21h-3.3l-.06-.65a12.29,12.29,0,0,0-1.37-3,9.8,9.8,0,0,0-2.2-2.43,10.44,10.44,0,0,0-3-1.65,13,13,0,0,0-9.66.69,10.86,10.86,0,0,0-3.79,3.49,14.85,14.85,0,0,0-2.1,5,25.63,25.63,0,0,0-.65,5.79,26.66,26.66,0,0,0,.66,5.92,15.86,15.86,0,0,0,2.15,5.17,11.6,11.6,0,0,0,3.88,3.65,11.43,11.43,0,0,0,5.81,1.39,13.29,13.29,0,0,0,4.28-.67,9.86,9.86,0,0,0,3.4-1.92,9.11,9.11,0,0,0,2.27-3.12,11.2,11.2,0,0,0,.94-4.25H665l0,0v-3a7.65,7.65,0,0,1,.21-1.83,4.17,4.17,0,0,1,.71-1.52,3.51,3.51,0,0,1,1.31-1,4.49,4.49,0,0,1,2-.39h17v5.72a23.92,23.92,0,0,1-1.49,8.71,17.46,17.46,0,0,1-4.23,6.44,18.12,18.12,0,0,1-6.64,4A25.86,25.86,0,0,1,665,531.08Z" transform="translate(-54.56 -64.2)"/><path class="cls-1" d="M704.57,506.78a30.74,30.74,0,0,1,1.44-9.56,22,22,0,0,1,4.24-7.69,19.8,19.8,0,0,1,7-5.13,23.69,23.69,0,0,1,9.73-1.88,24.81,24.81,0,0,1,7.53,1.13,20.38,20.38,0,0,1,6.34,3.31,18.55,18.55,0,0,1,4.64,5.35,21.13,21.13,0,0,1,1.19,2.55q2.14,5.72-8.78,5.56l-.13-.65a12,12,0,0,0-1.21-3.32,10.41,10.41,0,0,0-2.22-2.82,10.67,10.67,0,0,0-3.19-1.95A11.39,11.39,0,0,0,727,491a10.59,10.59,0,0,0-5,1.09,11.29,11.29,0,0,0-3.62,3,12.14,12.14,0,0,0-1.64,2.66,17.64,17.64,0,0,0-1,3,21.23,21.23,0,0,0-.55,3.07,28.5,28.5,0,0,0-.16,3,26.45,26.45,0,0,0,.28,3.85,20.16,20.16,0,0,0,.87,3.7,15.66,15.66,0,0,0,1.55,3.28,10.93,10.93,0,0,0,2.29,2.63,10.53,10.53,0,0,0,3.09,1.76,11.36,11.36,0,0,0,4,.65,12.33,12.33,0,0,0,4.14-.64,10.38,10.38,0,0,0,3.15-1.71,9.25,9.25,0,0,0,2.21-2.57,11.87,11.87,0,0,0,1.29-3.19l.13-.62q11.14-.7,8.66,5.37-.36.84-.78,1.68a17.39,17.39,0,0,1-4.07,5.21,19,19,0,0,1-6.22,3.57,24.91,24.91,0,0,1-8.54,1.33,23.9,23.9,0,0,1-9.76-1.86,19.65,19.65,0,0,1-7-5.12,21.94,21.94,0,0,1-4.23-7.71A31.27,31.27,0,0,1,704.57,506.78Z" transform="translate(-54.56 -64.2)"/><path class="cls-1" d="M752.67,506.82a30.58,30.58,0,0,1,1.49-9.7,21.84,21.84,0,0,1,4.37-7.7,19.84,19.84,0,0,1,7.16-5.07,27.33,27.33,0,0,1,19.69,0,20.26,20.26,0,0,1,7.14,5.09,21.56,21.56,0,0,1,4.36,7.71,32.41,32.41,0,0,1,0,19.3,21.64,21.64,0,0,1-4.36,7.69,20.26,20.26,0,0,1-7.14,5.09,27.33,27.33,0,0,1-19.69,0,20,20,0,0,1-7.16-5.07,22,22,0,0,1-4.37-7.69A30.35,30.35,0,0,1,752.67,506.82Zm10.4,0c0,1,.06,2,.16,3a19.87,19.87,0,0,0,.57,3.06,17.39,17.39,0,0,0,1.08,2.92,13.33,13.33,0,0,0,1.68,2.65,12,12,0,0,0,3.8,3,12.94,12.94,0,0,0,10.35,0,12,12,0,0,0,3.78-3,11.83,11.83,0,0,0,1.7-2.65,18.22,18.22,0,0,0,1.06-2.92,19.87,19.87,0,0,0,.57-3.06,28.87,28.87,0,0,0,0-6.07,20.22,20.22,0,0,0-.57-3.07,18.09,18.09,0,0,0-1.06-2.94,11.83,11.83,0,0,0-1.7-2.65,12,12,0,0,0-3.78-3.05,12.94,12.94,0,0,0-10.35,0,12,12,0,0,0-3.8,3.05,13.33,13.33,0,0,0-1.68,2.65,17.28,17.28,0,0,0-1.08,2.94,20.22,20.22,0,0,0-.57,3.07C763.13,504.81,763.07,505.83,763.07,506.82Z" transform="translate(-54.56 -64.2)"/><path class="cls-1" d="M848.68,483.3a11.3,11.3,0,0,1,2.22.21,5.4,5.4,0,0,1,1.85.71,3.65,3.65,0,0,1,1.28,1.31,3.88,3.88,0,0,1,.47,2v35.79h0v7h-3.69a11.28,11.28,0,0,1-2.21-.21,5.48,5.48,0,0,1-1.84-.71,3.68,3.68,0,0,1-1.26-1.31,3.88,3.88,0,0,1-.47-2V501.78L833.27,530h-7l-11.79-28.34V526.1a3.88,3.88,0,0,1-.47,2,3.65,3.65,0,0,1-1.28,1.31,5.56,5.56,0,0,1-1.84.71,11,11,0,0,1-2.19.21H805v-.74q0-10.6,0-21t0-21a3.88,3.88,0,0,1,.47-2,3.68,3.68,0,0,1,1.26-1.31,5.3,5.3,0,0,1,1.86-.71,11.48,11.48,0,0,1,2.23-.21h5.49l13.5,32.92,13.51-32.92Z" transform="translate(-54.56 -64.2)"/><path class="cls-1" d="M872.88,526.1a3.69,3.69,0,0,1-.5,2,3.88,3.88,0,0,1-1.36,1.31,6.22,6.22,0,0,1-2,.71,12.74,12.74,0,0,1-2.37.21h-3.94v-.74q0-10.6,0-21t0-21a3.69,3.69,0,0,1,.5-2,3.88,3.88,0,0,1,1.36-1.31,5.94,5.94,0,0,1,2-.71,13,13,0,0,1,2.39-.21h12.69a18.86,18.86,0,0,1,6.69,1.14,15.13,15.13,0,0,1,5.22,3.25,14.73,14.73,0,0,1,3.39,5,17,17,0,0,1,1.21,6.56,16.42,16.42,0,0,1-1.27,6.57,14.64,14.64,0,0,1-3.54,5,16,16,0,0,1-5.35,3.23,18.93,18.93,0,0,1-6.7,1.15h-8.4Zm0-34.63V507.2h6.56a10.63,10.63,0,0,0,3.84-.61,6.92,6.92,0,0,0,2.59-1.68,6.84,6.84,0,0,0,1.47-2.5,10.1,10.1,0,0,0,.46-3.12,9.93,9.93,0,0,0-.46-3.1,6.63,6.63,0,0,0-1.47-2.47,6.87,6.87,0,0,0-2.59-1.65,10.73,10.73,0,0,0-3.81-.6Z" transform="translate(-54.56 -64.2)"/><path class="cls-1" d="M903.63,523.23l14.25-39.93h10.76l14.41,39.93q2.72,7.26-6.79,7.07h-1.48l-3.91-11.76H915.46l-3.94,11.76h-1.84Q901.21,530.18,903.63,523.23Zm14.22-12.47h10.6l-5.3-16Z" transform="translate(-54.56 -64.2)"/><path class="cls-1" d="M982,530.3l-21.62-30.14v21.48h0l0,4.46a3.6,3.6,0,0,1-1.79,3.28,5.87,5.87,0,0,1-1.91.71,12.1,12.1,0,0,1-2.31.21h-3.84l0-42.8a3.79,3.79,0,0,1,.49-2,3.68,3.68,0,0,1,1.32-1.31,5.82,5.82,0,0,1,1.94-.71,16.86,16.86,0,0,1,3-.21h2l22.9,30.07V508.5q0-10.44,0-21a3.88,3.88,0,0,1,.47-2,3.68,3.68,0,0,1,1.26-1.31,5.3,5.3,0,0,1,1.86-.71,11.48,11.48,0,0,1,2.23-.21h3.68v42.8a3.88,3.88,0,0,1-.47,2,3.65,3.65,0,0,1-1.28,1.31,5.56,5.56,0,0,1-1.84.71,11,11,0,0,1-2.19.21Z" transform="translate(-54.56 -64.2)"/><path class="cls-1" d="M1022.49,526.1a3.89,3.89,0,0,1-.54,2,3.82,3.82,0,0,1-1.34,1.31,6,6,0,0,1-2,.71,12.93,12.93,0,0,1-2.38.21h-3.91V512.37a3.12,3.12,0,0,0,0-.55,19.21,19.21,0,0,0-1.06-2.44c-.39-.72-.8-1.41-1.23-2.08l-1.47-2.12a27.48,27.48,0,0,1-1.54-2.47l-8.69-14.47q-2.77-4.82,5-4.94h3.49l10.63,18.83,10.59-18.83h4.24q6.64-.07,3.78,4.94l-8.27,14.47c-.54.93-1.06,1.75-1.55,2.47l-1.46,2.12c-.43.67-.84,1.36-1.24,2.07a15.56,15.56,0,0,0-1.08,2.42Z" transform="translate(-54.56 -64.2)"/><path class="cls-1" d="M1084.32,521.93a4.25,4.25,0,0,1,2,.42,3.69,3.69,0,0,1,1.31,1.13,4.67,4.67,0,0,1,.71,1.64,8.7,8.7,0,0,1,.21,2v3.23h-31.08V494.83h0V487.5a3.69,3.69,0,0,1,.5-2,3.88,3.88,0,0,1,1.36-1.31,5.94,5.94,0,0,1,2-.71,13,13,0,0,1,2.39-.21h3.94v38.63Z" transform="translate(-54.56 -64.2)"/><path class="cls-1" d="M1115.94,526.1a3.61,3.61,0,0,1-.5,2,3.77,3.77,0,0,1-1.35,1.31,6.25,6.25,0,0,1-2,.71,13,13,0,0,1-2.39.21h-3.94V491.66h-9.6a3.91,3.91,0,0,1-2-.46,3.82,3.82,0,0,1-1.3-1.26,5.31,5.31,0,0,1-.72-1.86,11.56,11.56,0,0,1-.21-2.23V483.3h37.74v2.55a11.56,11.56,0,0,1-.21,2.23,5.5,5.5,0,0,1-.71,1.86,4,4,0,0,1-1.31,1.26,3.91,3.91,0,0,1-2,.46h-9.57Z" transform="translate(-54.56 -64.2)"/><path class="cls-1" d="M1135.43,499.87V487.5a3.61,3.61,0,0,1,.5-2,3.77,3.77,0,0,1,1.35-1.31,6,6,0,0,1,2-.71,13,13,0,0,1,2.39-.21h11.53a27.64,27.64,0,0,1,9.79,1.61,19.25,19.25,0,0,1,7.17,4.64,19.85,19.85,0,0,1,4.43,7.35,29.5,29.5,0,0,1,1.52,9.79,30.09,30.09,0,0,1-1.5,9.82,20.53,20.53,0,0,1-4.41,7.43,19.28,19.28,0,0,1-7.19,4.71,27.15,27.15,0,0,1-9.81,1.65h-17.8V499.93Zm10.17,22.06h6.75a14.32,14.32,0,0,0,6.63-1.34,11,11,0,0,0,4.08-3.5,13.45,13.45,0,0,0,2.09-4.9,26.69,26.69,0,0,0,.58-5.47,26.32,26.32,0,0,0-.26-3.64,17.2,17.2,0,0,0-.86-3.48,13.53,13.53,0,0,0-1.6-3.12,10.06,10.06,0,0,0-2.48-2.52,11.91,11.91,0,0,0-3.51-1.68,16.06,16.06,0,0,0-4.67-.62h-6.75Z" transform="translate(-54.56 -64.2)"/><path class="cls-1" d="M1177.28,525.36a5.58,5.58,0,0,1,.3-1.73,5.3,5.3,0,0,1,1-1.71,5.51,5.51,0,0,1,1.74-1.33,5.73,5.73,0,0,1,2.56-.53,5.55,5.55,0,0,1,2.5.53,5.7,5.7,0,0,1,1.73,1.33,5.06,5.06,0,0,1,1,5.15,5,5,0,0,1-1,1.73,5.41,5.41,0,0,1-1.73,1.32,5.46,5.46,0,0,1-2.53.54,5.59,5.59,0,0,1-2.56-.54,5.27,5.27,0,0,1-2.73-3A5.63,5.63,0,0,1,1177.28,525.36Z" transform="translate(-54.56 -64.2)"/><path class="cls-1" d="M86.33,423.89c-.07-.82-.17-1.64-.3-2.44a13.31,13.31,0,0,0-.57-2.2,13.81,13.81,0,0,0-2.07-3.81,13.24,13.24,0,0,0-3.24-3,16.26,16.26,0,0,0-4.36-2,19.4,19.4,0,0,0-5.46-.72,20.2,20.2,0,0,0-6.15.92,14.63,14.63,0,0,0-5,2.72,12.79,12.79,0,0,0-3.37,4.5,14.76,14.76,0,0,0-1.24,6.26v5.51c0,.78,0,1.65.14,2.62a17.56,17.56,0,0,0,.53,3,15.13,15.13,0,0,0,1.14,2.94,9.14,9.14,0,0,0,1.93,2.54,9.41,9.41,0,0,0,3,1.78,11.36,11.36,0,0,0,4.16.69h21V428.47c0-.65,0-1.37,0-2.16S86.39,424.72,86.33,423.89Zm-9.79,7.9a22.8,22.8,0,0,1-.2,2.49H69.56A5.2,5.2,0,0,1,65.75,433a4.93,4.93,0,0,1-1.3-3.69v-4a11.11,11.11,0,0,1,.35-2.82,6.51,6.51,0,0,1,1.1-2.31,5.38,5.38,0,0,1,1.91-1.55A6.19,6.19,0,0,1,70.6,418a5.79,5.79,0,0,1,2.57.52,5.08,5.08,0,0,1,1.8,1.55,5.73,5.73,0,0,1,.85,1.91,18.3,18.3,0,0,1,.49,2.47c.11.87.18,1.73.21,2.57s0,1.59,0,2.24Q76.57,430.55,76.54,431.79Z" transform="translate(-54.56 -64.2)"/><path class="cls-1" d="M60.07,405.57a5.41,5.41,0,0,0,1.71,1.25,5.53,5.53,0,0,0,2.47.51,5.77,5.77,0,0,0,2.12-.37A6,6,0,0,0,68,406a4.71,4.71,0,0,0,1.11-1.3,5.62,5.62,0,0,0,.58-1.47,5.33,5.33,0,0,0,.57,1.45,5.22,5.22,0,0,0,1,1.31,5.17,5.17,0,0,0,1.59.95,5.87,5.87,0,0,0,2.13.37,5.6,5.6,0,0,0,4.2-1.76,5.35,5.35,0,0,0,1-1.64,4.77,4.77,0,0,0,.33-1.68,5.07,5.07,0,0,0-.33-1.72,5.15,5.15,0,0,0-2.73-2.92A5.65,5.65,0,0,0,75,397.1a6.05,6.05,0,0,0-2.17.37,5.23,5.23,0,0,0-1.58.95,4.67,4.67,0,0,0-1,1.32,6.28,6.28,0,0,0-.55,1.47,5.62,5.62,0,0,0-.58-1.47A5.05,5.05,0,0,0,68,398.42a5.6,5.6,0,0,0-1.6-.95,6,6,0,0,0-2.14-.37,5.64,5.64,0,0,0-2.51.51,5.07,5.07,0,0,0-2.68,2.93,5,5,0,0,0-.32,1.71,4.89,4.89,0,0,0,.33,1.67A5.22,5.22,0,0,0,60.07,405.57Z" transform="translate(-54.56 -64.2)"/><path class="cls-1" d="M118.66,414.81a14.62,14.62,0,0,0-5.83-4,25,25,0,0,0-9.4-1.51H98.62v2a12.62,12.62,0,0,0,.2,2.27,5.72,5.72,0,0,0,.7,1.91,3.83,3.83,0,0,0,1.39,1.35,5.15,5.15,0,0,0,2.25.62H104a1.23,1.23,0,0,1,.27,0l.43.05a7.78,7.78,0,0,1,3.59,1.23,7.1,7.1,0,0,1,2.19,2.41,9.92,9.92,0,0,1,1.1,3.24,22.94,22.94,0,0,1,.3,3.77v9.25H97.28a4.26,4.26,0,0,0-2.25.54,4.05,4.05,0,0,0-1.42,1.4,5.75,5.75,0,0,0-.74,2,12.87,12.87,0,0,0-.2,2.24v2h29.76v-18a28.58,28.58,0,0,0-.81-6.86A14.34,14.34,0,0,0,118.66,414.81Z" transform="translate(-54.56 -64.2)"/><path class="cls-1" d="M160.19,426.18c-.05-.81-.15-1.62-.28-2.42a11.7,11.7,0,0,0-.57-2.21,13.62,13.62,0,0,0-2.07-3.8,13,13,0,0,0-3.24-3,16,16,0,0,0-4.36-2,19.3,19.3,0,0,0-5.46-.72,20.61,20.61,0,0,0-6.18.9,14,14,0,0,0-5,2.71,12.85,12.85,0,0,0-3.36,4.49,14.91,14.91,0,0,0-1.23,6.26v6.15a13.86,13.86,0,0,0,.25,2.6,9.81,9.81,0,0,0,.88,2.61c.31.58.69,1.2,1.14,1.88a17.24,17.24,0,0,0,1.53,2,12.3,12.3,0,0,0,2,1.8,9.32,9.32,0,0,0,2.46,1.29,22.09,22.09,0,0,0,4.05,1,31.08,31.08,0,0,0,4.2.28c.78,0,1.55,0,2.33-.08s1.56-.13,2.34-.22a13.88,13.88,0,0,1-.52,3.36,5.31,5.31,0,0,1-1.28,2.27,5.23,5.23,0,0,1-2.24,1.3,11.79,11.79,0,0,1-3.41.42h-7.54a4.92,4.92,0,0,0-2.19.5A3.83,3.83,0,0,0,131,454.8a5.32,5.32,0,0,0-.77,1.82,9.65,9.65,0,0,0-.23,2.18v2.37q3.71,0,13.19,0a26.19,26.19,0,0,0,6.36-.85,16.23,16.23,0,0,0,4.58-2,11.32,11.32,0,0,0,3.07-2.88,14.49,14.49,0,0,0,1.87-3.6,18.67,18.67,0,0,0,.94-4.05c.16-1.42.26-2.85.28-4.3V430.74c0-.67,0-1.39,0-2.17S160.25,427,160.19,426.18Zm-9.77,7.88a23.76,23.76,0,0,1-.2,2.52h-6.81a5.1,5.1,0,0,1-3.79-1.3,5,5,0,0,1-1.29-3.71v-4a11.11,11.11,0,0,1,.35-2.82,6.71,6.71,0,0,1,1.09-2.3,5,5,0,0,1,1.9-1.54,6.52,6.52,0,0,1,2.81-.55,5.72,5.72,0,0,1,2.54.5,4.86,4.86,0,0,1,1.8,1.54,5.5,5.5,0,0,1,.89,1.9,18.31,18.31,0,0,1,.48,2.47c.11.87.18,1.73.22,2.57s.05,1.59.05,2.24C150.46,432.39,150.45,433.23,150.42,434.06Z" transform="translate(-54.56 -64.2)"/><path class="cls-1" d="M351.23,397.09a6.22,6.22,0,0,0-2.05.73,4,4,0,0,0-1.41,1.36,3.8,3.8,0,0,0-.52,2v28.26a14.7,14.7,0,0,1-.3,3,6.38,6.38,0,0,1-1.1,2.52,5.6,5.6,0,0,1-2.17,1.72,8.31,8.31,0,0,1-3.47.63H326.43a17.78,17.78,0,0,0,.57-3,28,28,0,0,0,.17-2.95c0-.67,0-1.4,0-2.19s0-1.59-.12-2.41-.16-1.61-.28-2.4a12.43,12.43,0,0,0-.55-2.22,13.81,13.81,0,0,0-2.07-3.81,13.24,13.24,0,0,0-3.24-3,16.26,16.26,0,0,0-4.38-2,19.41,19.41,0,0,0-5.44-.72,20.52,20.52,0,0,0-6.18.9,14.38,14.38,0,0,0-5,2.71,12.81,12.81,0,0,0-3.35,4.51,14.88,14.88,0,0,0-1.24,6.28v10.25H262.18V427.5a30.54,30.54,0,0,0-.35-4.71,17.85,17.85,0,0,0-1.2-4.33,14.67,14.67,0,0,0-2.27-3.7,12.87,12.87,0,0,0-3.56-2.91,18.66,18.66,0,0,0-5.06-1.9,29.61,29.61,0,0,0-6.76-.69H232.09V410c0,.82,0,1.67.12,2.54a7.43,7.43,0,0,0,.56,2.35,4.18,4.18,0,0,0,1.37,1.74,4.32,4.32,0,0,0,2.56.72H243a9.14,9.14,0,0,1,4.44.95,7.15,7.15,0,0,1,2.64,2.47,9.91,9.91,0,0,1,1.27,3.44,22.78,22.78,0,0,1,.33,3.86v9.25H196.28V427.5a28.08,28.08,0,0,0-.82-6.86,14.2,14.2,0,0,0-3-5.83,14.62,14.62,0,0,0-5.83-4,25,25,0,0,0-9.4-1.51h-4.81v2a11.77,11.77,0,0,0,.2,2.27,5.72,5.72,0,0,0,.7,1.91,3.83,3.83,0,0,0,1.39,1.35,5.15,5.15,0,0,0,2.25.62h.87a1.23,1.23,0,0,1,.27,0l.43.05a7.78,7.78,0,0,1,3.59,1.23,7.2,7.2,0,0,1,2.19,2.41,9.92,9.92,0,0,1,1.1,3.24,22.94,22.94,0,0,1,.3,3.77v9.25H171.13a4.26,4.26,0,0,0-2.25.54,4.05,4.05,0,0,0-1.42,1.4,5.75,5.75,0,0,0-.74,2,12.87,12.87,0,0,0-.2,2.24v2H301.41l7.08,3.27h.31q1.2,0,2.55-.06c.9-.05,1.82-.14,2.74-.27a20.76,20.76,0,0,0,2.71-.59,10.66,10.66,0,0,0,2.42-1,7.14,7.14,0,0,0,1.08-.61q.52-.36,1-.72h21.52a15.32,15.32,0,0,0,8.25-2,12.53,12.53,0,0,0,4.81-5.41,19.47,19.47,0,0,0,1.44-4.24,20.67,20.67,0,0,0,.47-4.34v-32.6H353.7A13,13,0,0,0,351.23,397.09Zm-34.75,38.14a8.71,8.71,0,0,1-1,2.64,6.18,6.18,0,0,1-1.82,1.95,5.1,5.1,0,0,1-2.73.84l-6.24-2.91V428.4a12.43,12.43,0,0,1,.35-3,5.15,5.15,0,0,1,1.42-2.54,5.68,5.68,0,0,1,4.34-1.74,6,6,0,0,1,2.57.5,5,5,0,0,1,1.81,1.57,6.16,6.16,0,0,1,.85,1.91,18.31,18.31,0,0,1,.48,2.47c.11.87.18,1.73.22,2.57s0,1.59,0,2.24A14,14,0,0,1,316.48,435.23Z" transform="translate(-54.56 -64.2)"/><path class="cls-1" d="M369.67,397.09a6.36,6.36,0,0,0-2.06.73,4,4,0,0,0-1.4,1.36,3.71,3.71,0,0,0-.52,2q0,10.92,0,21.73t0,21.76v.77h4.07a12.86,12.86,0,0,0,2.46-.22,6.35,6.35,0,0,0,2-.73,4.08,4.08,0,0,0,1.41-1.36,3.8,3.8,0,0,0,.51-2V396.87h-4.07A13,13,0,0,0,369.67,397.09Z" transform="translate(-54.56 -64.2)"/><path class="cls-1" d="M429.79,428.47c0-.65,0-1.37,0-2.16s0-1.59-.12-2.42-.16-1.64-.3-2.44a12.4,12.4,0,0,0-.56-2.2,13.81,13.81,0,0,0-2.07-3.81,13.61,13.61,0,0,0-3.24-3,16.41,16.41,0,0,0-4.36-2,19.4,19.4,0,0,0-5.46-.72,20.1,20.1,0,0,0-6.15.92,14.44,14.44,0,0,0-5,2.72,12.67,12.67,0,0,0-3.37,4.5,14.76,14.76,0,0,0-1.24,6.26v5.51c0,.78,0,1.65.13,2.62a17.6,17.6,0,0,0,.54,3,15.09,15.09,0,0,0,1.13,2.94,9.18,9.18,0,0,0,1.94,2.54,9.3,9.3,0,0,0,3,1.78,11.33,11.33,0,0,0,4.16.69h21Zm-9.92,3.32a22.8,22.8,0,0,1-.2,2.49h-6.78a5.2,5.2,0,0,1-3.81-1.29,4.93,4.93,0,0,1-1.3-3.69v-4a10.68,10.68,0,0,1,.35-2.82,6.51,6.51,0,0,1,1.1-2.31,5.43,5.43,0,0,1,1.9-1.55,6.25,6.25,0,0,1,2.79-.57,5.76,5.76,0,0,1,2.57.52,5.11,5.11,0,0,1,1.81,1.55,5.94,5.94,0,0,1,.85,1.91,18.31,18.31,0,0,1,.48,2.47,25.47,25.47,0,0,1,.22,2.57c0,.85,0,1.59,0,2.24Q419.9,430.55,419.87,431.79Z" transform="translate(-54.56 -64.2)"/><path class="cls-1" d="M403.4,405.57a5.3,5.3,0,0,0,1.71,1.25,5.53,5.53,0,0,0,2.47.51,5.81,5.81,0,0,0,2.12-.37,6.13,6.13,0,0,0,1.6-.94,4.68,4.68,0,0,0,1.1-1.3,5.33,5.33,0,0,0,.59-1.47,5.33,5.33,0,0,0,.57,1.45,4.81,4.81,0,0,0,1.05,1.31,5.23,5.23,0,0,0,1.58.95,6,6,0,0,0,2.14.37,5.57,5.57,0,0,0,2.46-.51,5.39,5.39,0,0,0,1.73-1.25,5,5,0,0,0,1-1.64,4.79,4.79,0,0,0,.34-1.68,5.09,5.09,0,0,0-.34-1.72,5,5,0,0,0-1-1.67,5.34,5.34,0,0,0-1.72-1.25,5.65,5.65,0,0,0-2.49-.51,6,6,0,0,0-2.17.37,5.42,5.42,0,0,0-1.59.95,4.63,4.63,0,0,0-1,1.32,5.87,5.87,0,0,0-.55,1.47,5.33,5.33,0,0,0-.59-1.47,5.22,5.22,0,0,0-1.08-1.32,5.53,5.53,0,0,0-1.61-.95,5.87,5.87,0,0,0-2.13-.37,5.64,5.64,0,0,0-2.51.51,5.13,5.13,0,0,0-2.69,2.93,5.21,5.21,0,0,0-.31,1.71,4.89,4.89,0,0,0,.33,1.67A5.22,5.22,0,0,0,403.4,405.57Z" transform="translate(-54.56 -64.2)"/><path class="cls-1" d="M444.05,415.44a6.8,6.8,0,0,0-2.05.74,3.92,3.92,0,0,0-1.41,1.33,3.86,3.86,0,0,0-.51,2l0,1.27v23.75q0,.8-.06,1.68a12.6,12.6,0,0,1-.27,1.74,9.35,9.35,0,0,1-.55,1.62,5.15,5.15,0,0,1-.92,1.37,8.29,8.29,0,0,1-1.59,1.37,3.16,3.16,0,0,1-1.79.53h-.5a4.9,4.9,0,0,0-2.25.6,4.17,4.17,0,0,0-1.4,1.37,5.39,5.39,0,0,0-.72,1.92,12.84,12.84,0,0,0-.2,2.26v1.77H434a21.53,21.53,0,0,0,8.24-1.35,13.19,13.19,0,0,0,5.09-3.61,12.76,12.76,0,0,0,2.59-5.14,24.77,24.77,0,0,0,.72-6l0-22.91v-6.58h-4.11A13,13,0,0,0,444.05,415.44Z" transform="translate(-54.56 -64.2)"/><path class="cls-1" d="M530.85,451.58a5.56,5.56,0,0,0-1.79-1.32,5.92,5.92,0,0,0-2.55-.52,5.64,5.64,0,0,0-2.57.54,5.39,5.39,0,0,0-2.78,3,4.73,4.73,0,0,0,0,3.47,5.59,5.59,0,0,0,1,1.74,5.7,5.7,0,0,0,1.77,1.32,6.46,6.46,0,0,0,5.08,0,5.67,5.67,0,0,0,1.77-1.31,5.38,5.38,0,0,0,1-1.72,5.1,5.1,0,0,0,.35-1.77,5.21,5.21,0,0,0-.33-1.73A5.48,5.48,0,0,0,530.85,451.58Z" transform="translate(-54.56 -64.2)"/><path class="cls-1" d="M567.47,408.31a5.36,5.36,0,0,0,1.7,1.25,5.57,5.57,0,0,0,2.48.5,5.82,5.82,0,0,0,2.12-.36,6.13,6.13,0,0,0,1.6-.94,4.68,4.68,0,0,0,1.1-1.3,5.66,5.66,0,0,0,.59-1.47,5.64,5.64,0,0,0,.56,1.45,5,5,0,0,0,1.07,1.3,5.71,5.71,0,0,0,1.59,1,5.78,5.78,0,0,0,2.12.36,5.6,5.6,0,0,0,2.46-.5,5.39,5.39,0,0,0,1.73-1.25,5,5,0,0,0,1-1.64A4.84,4.84,0,0,0,588,405a5.4,5.4,0,0,0-1.34-3.39,5.52,5.52,0,0,0-1.72-1.26,5.79,5.79,0,0,0-2.49-.5,5.86,5.86,0,0,0-2.15.37,5.18,5.18,0,0,0-1.57,1,4.93,4.93,0,0,0-1.06,1.32,5.91,5.91,0,0,0-.56,1.47,5.66,5.66,0,0,0-.59-1.47,5.22,5.22,0,0,0-1.08-1.32,5.53,5.53,0,0,0-1.61-1,5.87,5.87,0,0,0-2.13-.37,5.79,5.79,0,0,0-2.51.5,5.3,5.3,0,0,0-1.7,1.27,4.9,4.9,0,0,0-1,1.67,5.41,5.41,0,0,0-.3,1.71,5.25,5.25,0,0,0,1.3,3.32Z" transform="translate(-54.56 -64.2)"/><path class="cls-1" d="M633.47,397.09a6.36,6.36,0,0,0-2.06.73,4,4,0,0,0-1.4,1.36,3.71,3.71,0,0,0-.52,2v28.26a14.7,14.7,0,0,1-.3,3,6.53,6.53,0,0,1-1.1,2.52,5.67,5.67,0,0,1-2.17,1.72,8.36,8.36,0,0,1-3.48.63h-1.5a7.71,7.71,0,0,1-3.39-.65A5.58,5.58,0,0,1,615.4,435a6.69,6.69,0,0,1-1.12-2.52,13.7,13.7,0,0,1-.32-3v-32.6h-4.11a12.76,12.76,0,0,0-2.45.22,6.32,6.32,0,0,0-2,.73,4,4,0,0,0-1.4,1.36,3.71,3.71,0,0,0-.52,2V429.6a13.31,13.31,0,0,1-.32,2.94A6.54,6.54,0,0,1,602,435a5.56,5.56,0,0,1-2.1,1.71,7.81,7.81,0,0,1-3.36.63h-7.45a7.66,7.66,0,0,1-3.4-.65,5.46,5.46,0,0,1-2.12-1.74,6.71,6.71,0,0,1-1.11-2.52,13.79,13.79,0,0,1-.31-3V415.21h-4.11a12.85,12.85,0,0,0-2.46.23,6.88,6.88,0,0,0-2,.74,3.92,3.92,0,0,0-1.41,1.33,3.86,3.86,0,0,0-.51,2v9.92a13.7,13.7,0,0,1-.32,3,7.15,7.15,0,0,1-1.09,2.52,5.34,5.34,0,0,1-2.1,1.75,7.71,7.71,0,0,1-3.41.65H542V427.5a30.54,30.54,0,0,0-.35-4.71,17.85,17.85,0,0,0-1.2-4.33,14.39,14.39,0,0,0-2.27-3.7,12.87,12.87,0,0,0-3.56-2.91,18.66,18.66,0,0,0-5.06-1.9,29.61,29.61,0,0,0-6.76-.69H511.88V410c0,.82,0,1.67.12,2.54a7.43,7.43,0,0,0,.56,2.35,4.18,4.18,0,0,0,1.37,1.74,4.35,4.35,0,0,0,2.56.72h6.28a9.14,9.14,0,0,1,4.44.95,7.15,7.15,0,0,1,2.64,2.47,9.72,9.72,0,0,1,1.27,3.44,22.78,22.78,0,0,1,.33,3.86v9.25H477.08a8.08,8.08,0,0,1-3.57-.68,5.56,5.56,0,0,1-2.14-1.82,6.67,6.67,0,0,1-1-2.62,17.62,17.62,0,0,1-.27-3.13V396.87h-4a13,13,0,0,0-2.47.22,6.36,6.36,0,0,0-2.06.73,4,4,0,0,0-1.4,1.36,3.71,3.71,0,0,0-.52,2V429.1a31.88,31.88,0,0,0,.25,3.89,17.25,17.25,0,0,0,.92,3.78,14.57,14.57,0,0,0,1.8,3.4,11.16,11.16,0,0,0,2.88,2.76,14.15,14.15,0,0,0,4.17,1.85c1.63.46,2.17.69,8.23.69h88.34c4.16,0,6.33-.5,8.31-1.49a12.05,12.05,0,0,0,4.75-4.12,14.43,14.43,0,0,0,1.55,2.15,9.22,9.22,0,0,0,2.11,1.79,10.76,10.76,0,0,0,2.77,1.22,12.63,12.63,0,0,0,3.52.45H599a16.25,16.25,0,0,0,7.31-1.49,12.09,12.09,0,0,0,4.74-4.12,15.26,15.26,0,0,0,1.56,2.15,9.38,9.38,0,0,0,2.1,1.79,10.92,10.92,0,0,0,2.77,1.22,12.71,12.71,0,0,0,3.53.45h4a15.32,15.32,0,0,0,8.25-2,12.53,12.53,0,0,0,4.81-5.41,20,20,0,0,0,1.9-8.58v-32.6h-4.07A13,13,0,0,0,633.47,397.09Z" transform="translate(-54.56 -64.2)"/><path class="cls-1" d="M718.17,421a12.21,12.21,0,0,0-2.87-4.46,15.28,15.28,0,0,0-4.94-3.25,15,15,0,0,0-3.48-1,23.3,23.3,0,0,0-3.64-.28,17.78,17.78,0,0,0-9.22,2.2,12.88,12.88,0,0,0-5.38,6.11,13.65,13.65,0,0,0-1,3.58,25.43,25.43,0,0,0-.26,3.57V444h-3.11a34.64,34.64,0,0,1-6-.47,11.13,11.13,0,0,1-4.51-1.75,8.18,8.18,0,0,1-2.84-3.59,16.43,16.43,0,0,1,0-11.39c.11-.22.21-.44.3-.64l.27-.63a3.32,3.32,0,0,0,.3-1.37,2.92,2.92,0,0,0-.44-1.59,5,5,0,0,0-1.12-1.22,8.44,8.44,0,0,0-1.52-.93,14.84,14.84,0,0,0-1.6-.67c-.44-.18-.91-.34-1.39-.5s-1-.32-1.45-.5l-1-.4-.37.8A43,43,0,0,0,660.6,426a29.46,29.46,0,0,0-.85,7.08,20,20,0,0,0,1.86,9.15,14.82,14.82,0,0,0,5.06,5.78,20.63,20.63,0,0,0,7.5,3,46.21,46.21,0,0,0,9.2.87h13.86V427.43a10,10,0,0,1,.35-2.59,7.09,7.09,0,0,1,1.1-2.32,5.73,5.73,0,0,1,1.94-1.67,6.08,6.08,0,0,1,2.89-.63,4.79,4.79,0,0,1,2.6.63,4.57,4.57,0,0,1,1.57,1.67,7.43,7.43,0,0,1,.79,2.34,23.12,23.12,0,0,1,.28,2.61c.11,1.6.2,3.2.25,4.79s.06,3.19,0,4.79v.8h3.87a11.14,11.14,0,0,0,2.46-.25,5.73,5.73,0,0,0,1.92-.78,3.64,3.64,0,0,0,1.23-1.36,4.07,4.07,0,0,0,.44-1.95v-6.08c0-1,0-2.09-.1-3.2A12,12,0,0,0,718.17,421Z" transform="translate(-54.56 -64.2)"/><path class="cls-1" d="M693.12,454.87a5.34,5.34,0,0,0-1.72-1.25,5.65,5.65,0,0,0-2.49-.5,5.59,5.59,0,0,0-3.59,1.18,5.22,5.22,0,0,0-1.72,2.56,5.08,5.08,0,0,0-.62-1.37,4.67,4.67,0,0,0-1.07-1.2,5.14,5.14,0,0,0-1.55-.86,6.26,6.26,0,0,0-2.07-.31,5.65,5.65,0,0,0-2.49.5,5,5,0,0,0-1.7,1.27,5.16,5.16,0,0,0-1,1.65,4.6,4.6,0,0,0,0,3.37,4.93,4.93,0,0,0,1,1.64,5.57,5.57,0,0,0,1.72,1.25,5.45,5.45,0,0,0,2.44.5,5.9,5.9,0,0,0,2-.33,5.6,5.6,0,0,0,1.55-.85,5.11,5.11,0,0,0,1.09-1.19,4.83,4.83,0,0,0,.63-1.37,5.22,5.22,0,0,0,1.72,2.56,5.75,5.75,0,0,0,1.55.85,5.94,5.94,0,0,0,2,.33,5.87,5.87,0,0,0,2.46-.48,5.08,5.08,0,0,0,1.73-1.24,4.93,4.93,0,0,0,1-1.65,5,5,0,0,0,.34-1.7,5.3,5.3,0,0,0-1.34-3.36Z" transform="translate(-54.56 -64.2)"/><path class="cls-1" d="M825.17,408.56a5.8,5.8,0,0,0,6.18.94,5.67,5.67,0,0,0,1.7-1.26,5,5,0,0,0,1-1.62,4.77,4.77,0,0,0,.31-1.63,5.15,5.15,0,0,0-1.3-3.33,5.52,5.52,0,0,0-1.7-1.25,5.62,5.62,0,0,0-2.44-.5,5.25,5.25,0,0,0-4.11,1.77,5.22,5.22,0,0,0-1,1.65,5,5,0,0,0-.31,1.66,4.43,4.43,0,0,0,.45,2A5,5,0,0,0,825.17,408.56Z" transform="translate(-54.56 -64.2)"/><path class="cls-1" d="M830.4,398.79a5.28,5.28,0,0,0,4.11,1.75,5.73,5.73,0,0,0,2.45-.48,4.83,4.83,0,0,0,1.67-1.24,5.2,5.2,0,0,0,1.29-3.29,5.25,5.25,0,0,0-1.29-3.32A4.94,4.94,0,0,0,837,391a6.35,6.35,0,0,0-4.89,0,5,5,0,0,0-1.69,1.23,5.19,5.19,0,0,0-1,1.64,5,5,0,0,0-.31,1.68,4.78,4.78,0,0,0,.31,1.64A4.92,4.92,0,0,0,830.4,398.79Z" transform="translate(-54.56 -64.2)"/><path class="cls-1" d="M853.93,415.44a6.84,6.84,0,0,0-2,.74,3.64,3.64,0,0,0-1.92,3.37v11.66a9,9,0,0,1-.27,2.23,4.83,4.83,0,0,1-.88,1.87,4.2,4.2,0,0,1-1.62,1.27,6.53,6.53,0,0,1-5-.06,5.09,5.09,0,0,1-1.75-1.41,5.73,5.73,0,0,1-1-2,7.75,7.75,0,0,1-.34-2.29V415.21h-3.71a13.11,13.11,0,0,0-2.47.23,6.43,6.43,0,0,0-2,.75,3.94,3.94,0,0,0-1.35,1.34,3.83,3.83,0,0,0-.5,2v12.06a7.41,7.41,0,0,1-.29,2.08,4.4,4.4,0,0,1-2.53,2.93,5.85,5.85,0,0,1-2.36.43,5.37,5.37,0,0,1-2.64-.63,5.86,5.86,0,0,1-1.9-1.71,26,26,0,0,0,.52-2.6,19.3,19.3,0,0,0,.18-2.64V415.21h-3.94a20.21,20.21,0,0,0-2.24.2,7.6,7.6,0,0,0-2.14.62,4.13,4.13,0,0,0-1.58,1.28,3.63,3.63,0,0,0-.62,2.24v9.92a14.36,14.36,0,0,1-.3,3A6.64,6.64,0,0,1,808.1,435a5.49,5.49,0,0,1-2.1,1.75,7.59,7.59,0,0,1-3.39.65h-47.7V427.5a28.08,28.08,0,0,0-.82-6.86,14.2,14.2,0,0,0-3-5.83,14.62,14.62,0,0,0-5.83-4,25,25,0,0,0-9.4-1.51H731.1v2a11.77,11.77,0,0,0,.2,2.27,5.51,5.51,0,0,0,.7,1.91,3.8,3.8,0,0,0,1.38,1.35,5.2,5.2,0,0,0,2.26.62h.87a1.1,1.1,0,0,1,.26,0l.44.05a7.78,7.78,0,0,1,3.59,1.23,7.31,7.31,0,0,1,2.19,2.41,9.92,9.92,0,0,1,1.1,3.24,22.94,22.94,0,0,1,.3,3.77v9.25H729.76a4.26,4.26,0,0,0-2.25.54,4.05,4.05,0,0,0-1.42,1.4,5.75,5.75,0,0,0-.74,2,12.87,12.87,0,0,0-.2,2.24v2h79.9a16.48,16.48,0,0,0,7.11-1.4,12.05,12.05,0,0,0,4.74-3.95,12.59,12.59,0,0,0,1.67,2.08,11.22,11.22,0,0,0,2.23,1.7,11.36,11.36,0,0,0,2.78,1.15,12.68,12.68,0,0,0,3.34.42,13.64,13.64,0,0,0,3.54-.42,10.36,10.36,0,0,0,2.79-1.17,9.07,9.07,0,0,0,2.11-1.75,10.54,10.54,0,0,0,1.48-2.17,15.09,15.09,0,0,0,1.89,2.15,12,12,0,0,0,2.44,1.76,12.82,12.82,0,0,0,3,1.16,14,14,0,0,0,3.59.44,14.24,14.24,0,0,0,5.07-.87,11.14,11.14,0,0,0,3.94-2.47,10.9,10.9,0,0,0,2.54-3.88,13.63,13.63,0,0,0,.91-5.07v-18h-3.85A12.82,12.82,0,0,0,853.93,415.44Z" transform="translate(-54.56 -64.2)"/><path class="cls-1" d="M835.93,401.66a5,5,0,0,0-1,1.66,5.11,5.11,0,0,0-.32,1.67,4.31,4.31,0,0,0,.47,2,5.19,5.19,0,0,0,1.22,1.59,5.49,5.49,0,0,0,1.72,1.05,5.28,5.28,0,0,0,2,.39,5.47,5.47,0,0,0,2.42-.5,5.62,5.62,0,0,0,1.69-1.26,5,5,0,0,0,1-1.63,4.64,4.64,0,0,0,.32-1.62,4.86,4.86,0,0,0-.32-1.67,5.14,5.14,0,0,0-1-1.66,5.38,5.38,0,0,0-1.67-1.25,6.25,6.25,0,0,0-4.9,0A5.2,5.2,0,0,0,835.93,401.66Z" transform="translate(-54.56 -64.2)"/><path class="cls-1" d="M872.12,397.09a6.36,6.36,0,0,0-2.06.73,4,4,0,0,0-1.4,1.36,3.71,3.71,0,0,0-.52,2q0,10.92,0,21.73t0,21.76v.77h4.08a12.69,12.69,0,0,0,2.45-.22,6.32,6.32,0,0,0,2-.73,4,4,0,0,0,1.4-1.36,3.71,3.71,0,0,0,.52-2V396.87h-4.07A13,13,0,0,0,872.12,397.09Z" transform="translate(-54.56 -64.2)"/><path class="cls-1" d="M941,397.09a6.38,6.38,0,0,0-2.05.73,4,4,0,0,0-1.4,1.36,3.71,3.71,0,0,0-.52,2v28.26a14.7,14.7,0,0,1-.3,3,6.53,6.53,0,0,1-1.1,2.52,5.67,5.67,0,0,1-2.17,1.72,8.36,8.36,0,0,1-3.48.63H901.41l0-15.56v-6.58h-4.11a13,13,0,0,0-2.47.23,6.8,6.8,0,0,0-2.05.74,3.92,3.92,0,0,0-1.41,1.33,3.86,3.86,0,0,0-.51,2l0,1.27v23.75q0,.8-.06,1.68a12.6,12.6,0,0,1-.27,1.74,8.58,8.58,0,0,1-.55,1.62,5.15,5.15,0,0,1-.92,1.37,8.29,8.29,0,0,1-1.59,1.37,3.15,3.15,0,0,1-1.78.53h-.5a4.91,4.91,0,0,0-2.26.6,4.17,4.17,0,0,0-1.4,1.37,5.39,5.39,0,0,0-.72,1.92,12.84,12.84,0,0,0-.2,2.26v1.77h4.17a21.71,21.71,0,0,0,8-1.27,13.06,13.06,0,0,0,5.06-3.41,12.33,12.33,0,0,0,2.67-4.91,22.82,22.82,0,0,0,.86-5.74h31.16a15.32,15.32,0,0,0,8.25-2,12.53,12.53,0,0,0,4.81-5.41,20.37,20.37,0,0,0,1.9-8.58v-32.6h-4.07A13.15,13.15,0,0,0,941,397.09Z" transform="translate(-54.56 -64.2)"/><path class="cls-1" d="M959.39,397.09a6.3,6.3,0,0,0-2,.73,4,4,0,0,0-1.4,1.36,3.71,3.71,0,0,0-.52,2q0,10.92,0,21.73t0,21.76v.77h4.08a12.83,12.83,0,0,0,2.45-.22,6.32,6.32,0,0,0,2-.73,4,4,0,0,0,1.4-1.36,3.71,3.71,0,0,0,.52-2V396.87h-4.08A13.12,13.12,0,0,0,959.39,397.09Z" transform="translate(-54.56 -64.2)"/><path class="cls-1" d="M994.2,405.27a5.25,5.25,0,0,0,1.7,1.25,5.53,5.53,0,0,0,2.47.5,6,6,0,0,0,2.14-.36,5.68,5.68,0,0,0,1.6-.94,4.81,4.81,0,0,0,1.09-1.3,5.29,5.29,0,0,0,.58-1.47,5.33,5.33,0,0,0,.57,1.45,4.89,4.89,0,0,0,1.07,1.31,5.72,5.72,0,0,0,1.58,1,5.83,5.83,0,0,0,2.13.36,5.46,5.46,0,0,0,4.19-1.75,5.35,5.35,0,0,0,1-1.64,4.81,4.81,0,0,0,.33-1.68,5.24,5.24,0,0,0-.32-1.71,4.72,4.72,0,0,0-1-1.65,5.47,5.47,0,0,0-4.22-1.75,5.89,5.89,0,0,0-2.16.36,5.46,5.46,0,0,0-1.57,1,5.18,5.18,0,0,0-1,1.3,5.33,5.33,0,0,0-.57,1.45,5.29,5.29,0,0,0-.58-1.47,5.12,5.12,0,0,0-1.07-1.3,5.62,5.62,0,0,0-1.59-.94,6,6,0,0,0-2.17-.36,5.6,5.6,0,0,0-2.5.5,5.3,5.3,0,0,0-1.71,1.25,4.79,4.79,0,0,0-1,1.65,5.46,5.46,0,0,0-.3,1.71,5.11,5.11,0,0,0,.32,1.67A4.84,4.84,0,0,0,994.2,405.27Z" transform="translate(-54.56 -64.2)"/><path class="cls-1" d="M1081.47,445.47v-7.18c0-1.07-.06-2.21-.18-3.43a21.39,21.39,0,0,0-.69-3.64,17.11,17.11,0,0,0-1.4-3.52,12.11,12.11,0,0,0-2.37-3.11,13.66,13.66,0,0,0-4.61-2.92,21.29,21.29,0,0,0-5.34-1.32l11.42-13.69a4.71,4.71,0,0,0,.73-1.34,4.07,4.07,0,0,0,.27-1.4,3.69,3.69,0,0,0-.42-1.76,8.39,8.39,0,0,0-1-1.45,11.52,11.52,0,0,0-1.3-1.22l-1.41-1.12-.9-.7-.7.8q-5,5.92-9.77,11.74T1054.08,422l-.16.2v6.08h1.23l1.19-.05c.43,0,.84,0,1.22-.05v.07l4.24.07c3,0,5.23.74,6.66,2.22s2.26,3.77,2.46,6.86h-47.06c-.63,0-1.24-.11-1.82-.2a5,5,0,0,1-1.72-.6v-9.08c0-.67,0-1.4,0-2.18s0-1.57-.12-2.38-.16-1.62-.28-2.41a13.35,13.35,0,0,0-.55-2.22,13.4,13.4,0,0,0-5.31-6.8,16.26,16.26,0,0,0-4.38-2,19.41,19.41,0,0,0-5.44-.72,20.52,20.52,0,0,0-6.18.91,14.2,14.2,0,0,0-5,2.7,12.81,12.81,0,0,0-3.35,4.51,14.88,14.88,0,0,0-1.24,6.28v6.11a13.68,13.68,0,0,0,.25,2.62,9.7,9.7,0,0,0,.89,2.59c.31.6.69,1.24,1.13,1.92a16.6,16.6,0,0,0,1.54,2,12.73,12.73,0,0,0,2,1.79,9.37,9.37,0,0,0,2.45,1.28,21.27,21.27,0,0,0,4.08,1,31,31,0,0,0,4.17.28,33.88,33.88,0,0,0,3.93-.22c1.28-.14,2.54-.34,3.79-.58a11.15,11.15,0,0,0,3.57,2.59,11.75,11.75,0,0,0,4.91,1Zm-71-14.66a24,24,0,0,1-.2,2.5h-6.82a5.13,5.13,0,0,1-3.79-1.29,5,5,0,0,1-1.28-3.69v-4a10.68,10.68,0,0,1,.35-2.82,6.52,6.52,0,0,1,1.08-2.3,5.14,5.14,0,0,1,1.91-1.56,6.33,6.33,0,0,1,2.8-.57,5.72,5.72,0,0,1,2.54.51,4.93,4.93,0,0,1,1.81,1.53,5.52,5.52,0,0,1,.88,1.92,18.93,18.93,0,0,1,.48,2.49,25.47,25.47,0,0,1,.22,2.57c0,.85.05,1.6.05,2.24C1010.46,429.15,1010.45,430,1010.43,430.81Z" transform="translate(-54.56 -64.2)"/><path class="cls-1" d="M1158.59,398.79a5.43,5.43,0,0,0,1.69,1.25,5.36,5.36,0,0,0,2.42.5,5.74,5.74,0,0,0,2.46-.48,4.93,4.93,0,0,0,1.67-1.24,5.14,5.14,0,0,0,1-1.63,4.94,4.94,0,0,0,.31-1.66,5,5,0,0,0-.31-1.68,5.19,5.19,0,0,0-1-1.64,5,5,0,0,0-1.67-1.23,6.37,6.37,0,0,0-4.9,0,4.89,4.89,0,0,0-1.68,1.23,5.25,5.25,0,0,0-1.29,3.32,4.81,4.81,0,0,0,.32,1.64A5.06,5.06,0,0,0,1158.59,398.79Z" transform="translate(-54.56 -64.2)"/><path class="cls-1" d="M1164.12,401.66a5.36,5.36,0,0,0-1,1.66,5.08,5.08,0,0,0-.31,1.67,4.3,4.3,0,0,0,.46,2,5.35,5.35,0,0,0,1.22,1.59,5.6,5.6,0,0,0,1.72,1.05,5.37,5.37,0,0,0,2,.39,5.5,5.5,0,0,0,2.42-.5,5.62,5.62,0,0,0,1.69-1.26,5,5,0,0,0,1-1.63,4.89,4.89,0,0,0,.32-1.62,5.11,5.11,0,0,0-.32-1.67,5,5,0,0,0-1-1.66,5.26,5.26,0,0,0-1.67-1.25,6.23,6.23,0,0,0-4.89,0A5.36,5.36,0,0,0,1164.12,401.66Z" transform="translate(-54.56 -64.2)"/><path class="cls-1" d="M1153.37,408.56a5.53,5.53,0,0,0,1.73,1.05,5.8,5.8,0,0,0,4.45-.11,5.79,5.79,0,0,0,1.7-1.26,5,5,0,0,0,1.32-3.25,5.11,5.11,0,0,0-.32-1.67,5,5,0,0,0-1-1.66,5.9,5.9,0,0,0-6.57-1.25,5.32,5.32,0,0,0-1.68,1.27,5.19,5.19,0,0,0-1.31,3.31,4.3,4.3,0,0,0,.46,2A5,5,0,0,0,1153.37,408.56Z" transform="translate(-54.56 -64.2)"/><path class="cls-1" d="M1184.58,415.21a12.66,12.66,0,0,0-2.45.23,6.84,6.84,0,0,0-2,.74,3.64,3.64,0,0,0-1.92,3.37v11.66a9,9,0,0,1-.27,2.23,5,5,0,0,1-.88,1.87,4.35,4.35,0,0,1-1.62,1.27,5.75,5.75,0,0,1-2.48.47,5.65,5.65,0,0,1-2.53-.53,5.13,5.13,0,0,1-1.76-1.41,5.91,5.91,0,0,1-1-2,8.08,8.08,0,0,1-.33-2.29V415.21h-3.71a13,13,0,0,0-2.47.23,6.43,6.43,0,0,0-2,.75,3.94,3.94,0,0,0-1.35,1.34,3.74,3.74,0,0,0-.5,2v12.06a7.41,7.41,0,0,1-.29,2.08,4.55,4.55,0,0,1-.92,1.74,4.38,4.38,0,0,1-1.62,1.19,5.77,5.77,0,0,1-2.35.43,5.37,5.37,0,0,1-2.64-.63,5.76,5.76,0,0,1-1.9-1.71,23.41,23.41,0,0,0,.51-2.6,17.84,17.84,0,0,0,.19-2.64V415.21h-3.94a20,20,0,0,0-2.24.2,7.6,7.6,0,0,0-2.14.62,4.16,4.16,0,0,0-1.59,1.28,3.7,3.7,0,0,0-.61,2.24v9.92a14.36,14.36,0,0,1-.3,3,6.8,6.8,0,0,1-1.09,2.52,5.56,5.56,0,0,1-2.1,1.75,7.59,7.59,0,0,1-3.39.65h-28.53l0-15.56v-6.58h-4.1a13.14,13.14,0,0,0-2.48.23,6.8,6.8,0,0,0-2,.74,3.64,3.64,0,0,0-1.92,3.37l0,1.27v23.75c0,.53,0,1.09-.07,1.68a11.25,11.25,0,0,1-.27,1.74,8.58,8.58,0,0,1-.55,1.62,4.92,4.92,0,0,1-.92,1.37,8.56,8.56,0,0,1-1.58,1.37,3.2,3.2,0,0,1-1.79.53h-.5a4.91,4.91,0,0,0-2.26.6,4.27,4.27,0,0,0-1.4,1.37,5.8,5.8,0,0,0-.72,1.92,12.84,12.84,0,0,0-.2,2.26v1.77h4.18a21.62,21.62,0,0,0,8-1.27,13.06,13.06,0,0,0,5.06-3.41,12.48,12.48,0,0,0,2.68-4.91,23.28,23.28,0,0,0,.85-5.74h31a16.49,16.49,0,0,0,7.12-1.4,12.05,12.05,0,0,0,4.74-3.95,12.09,12.09,0,0,0,1.67,2.08,11.44,11.44,0,0,0,2.22,1.7,11.6,11.6,0,0,0,2.79,1.15,12.62,12.62,0,0,0,3.34.42,13.75,13.75,0,0,0,3.54-.42,10.36,10.36,0,0,0,2.79-1.17,9.22,9.22,0,0,0,2.1-1.75A10.59,10.59,0,0,0,1165,440a14.49,14.49,0,0,0,1.89,2.15,11.42,11.42,0,0,0,2.44,1.76,12.91,12.91,0,0,0,3,1.16,14.07,14.07,0,0,0,3.59.44,14.29,14.29,0,0,0,5.08-.87,10.85,10.85,0,0,0,6.48-6.35,13.63,13.63,0,0,0,.9-5.07v-18Z" transform="translate(-54.56 -64.2)"/><path class="cls-1" d="M644.71,87.53a2.63,2.63,0,0,0-.57-.72,3,3,0,0,0-.82-.55,4.3,4.3,0,0,0-1.1-.33,4.23,4.23,0,0,0-1.28,0,2.93,2.93,0,0,0-1.12.39,2.7,2.7,0,0,0-.84.81,3.14,3.14,0,0,0-.46,1.24l-.18,1.12q0,.24-.06.54a4.46,4.46,0,0,0,0,.63,3.07,3.07,0,0,0,.14.64,1.91,1.91,0,0,0,.31.58,2,2,0,0,0,.55.46,2.33,2.33,0,0,0,.82.28l4.31.69.49-3c0-.13,0-.28.06-.44a4,4,0,0,0,.06-.5c0-.17,0-.34,0-.51a3.43,3.43,0,0,0,0-.47A3,3,0,0,0,644.71,87.53Zm-1.79,2.14c0,.17,0,.33-.06.46l-.09.51c0,.17-.08.34-.13.51l-1.38-.23a1,1,0,0,1-.74-.39,1,1,0,0,1-.14-.8l.13-.82a2.38,2.38,0,0,1,.16-.57,1.25,1.25,0,0,1,.31-.43,1,1,0,0,1,.44-.26,1.27,1.27,0,0,1,.59,0,1.23,1.23,0,0,1,.51.19,1.09,1.09,0,0,1,.42.79,3.05,3.05,0,0,1,0,.53A4.73,4.73,0,0,1,642.92,89.67Z" transform="translate(-54.56 -64.2)"/><path class="cls-1" d="M640.27,84.74a1.1,1.1,0,0,0,.3.31,1.19,1.19,0,0,0,.49.18,1.14,1.14,0,0,0,.45,0,1.42,1.42,0,0,0,.36-.14,1,1,0,0,0,.26-.23,1.05,1.05,0,0,0,.17-.28,1.16,1.16,0,0,0,.07.31,1.11,1.11,0,0,0,.17.3,1.05,1.05,0,0,0,.3.25,1.3,1.3,0,0,0,.42.15,1.27,1.27,0,0,0,.52,0,1.25,1.25,0,0,0,.4-.2,1.22,1.22,0,0,0,.26-.3,1.26,1.26,0,0,0,.12-.34.88.88,0,0,0,0-.36.85.85,0,0,0-.15-.37,1,1,0,0,0-.31-.32,1.4,1.4,0,0,0-1-.18,1.22,1.22,0,0,0-.35.14,1,1,0,0,0-.26.24,1.12,1.12,0,0,0-.16.28,1.32,1.32,0,0,0-.07-.32.92.92,0,0,0-.18-.3,1.05,1.05,0,0,0-.3-.25,1.29,1.29,0,0,0-1-.13,1.2,1.2,0,0,0-.39.2,1.48,1.48,0,0,0-.26.31,1.26,1.26,0,0,0-.12.34,1,1,0,0,0,0,.35A1.06,1.06,0,0,0,640.27,84.74Z" transform="translate(-54.56 -64.2)"/><path class="cls-1" d="M652.46,90.39a2.84,2.84,0,0,0-.31-1.31,3.06,3.06,0,0,0-1-1.1,5.33,5.33,0,0,0-1.82-.76l-1-.23-.09.4a1.9,1.9,0,0,0-.07.46,1,1,0,0,0,0,.42.81.81,0,0,0,.21.34.94.94,0,0,0,.42.23l.18,0h0l.09,0a1.61,1.61,0,0,1,.66.43,1.48,1.48,0,0,1,.32.59,1.8,1.8,0,0,1,.07.7,5.69,5.69,0,0,1-.12.78l-.45,1.86-3-.71a1,1,0,0,0-.48,0,1,1,0,0,0-.35.22,1.13,1.13,0,0,0-.24.36,1.76,1.76,0,0,0-.15.44l-.1.4,6,1.44.87-3.62A5.86,5.86,0,0,0,652.46,90.39Z" transform="translate(-54.56 -64.2)"/><path class="cls-1" d="M659.94,93.92c0-.16.07-.33.1-.49a2.57,2.57,0,0,0,0-.47,2.69,2.69,0,0,0-.16-.89,2.94,2.94,0,0,0-1.19-1.45,3.64,3.64,0,0,0-1-.49,4.47,4.47,0,0,0-1.28-.22,2.91,2.91,0,0,0-1.15.22,2.7,2.7,0,0,0-1,.67,3.24,3.24,0,0,0-.64,1.16l-.39,1.21a3.12,3.12,0,0,0-.11.53,1.56,1.56,0,0,0,0,.57,3.1,3.1,0,0,0,.1.45,2.67,2.67,0,0,0,.18.49,2.27,2.27,0,0,0,.27.48,2,2,0,0,0,.41.41,4.56,4.56,0,0,0,.74.45,7.85,7.85,0,0,0,.8.32l.47.13.48.1a3.06,3.06,0,0,1-.32.63,1,1,0,0,1-.4.37,1.08,1.08,0,0,1-.52.12,2.62,2.62,0,0,1-.7-.14l-1.49-.48a1.08,1.08,0,0,0-.46,0,.85.85,0,0,0-.36.16,1.37,1.37,0,0,0-.27.31,2.54,2.54,0,0,0-.18.41l-.15.47,2.6.83a6,6,0,0,0,1.31.24,3.64,3.64,0,0,0,1-.1,2.52,2.52,0,0,0,.79-.38,3,3,0,0,0,.6-.59,3.62,3.62,0,0,0,.44-.74c.12-.27.23-.54.33-.83l.8-2.51c.05-.13.09-.27.14-.43S659.9,94.09,659.94,93.92Zm-2-.52a4.37,4.37,0,0,1-.12.52c0,.17-.09.32-.13.44s-.11.34-.17.5a3.26,3.26,0,0,1-.2.48L656,94.91a1.05,1.05,0,0,1-.67-.5,1.06,1.06,0,0,1,0-.81l.26-.79a2.69,2.69,0,0,1,.25-.54,1.35,1.35,0,0,1,.36-.39,1.28,1.28,0,0,1,.47-.18,1.38,1.38,0,0,1,.59.07,1.18,1.18,0,0,1,.47.26,1.11,1.11,0,0,1,.26.42,1.13,1.13,0,0,1,0,.43A4.88,4.88,0,0,1,657.93,93.4Z" transform="translate(-54.56 -64.2)"/><path class="cls-1" d="M688,110.13l4.06-5.4-.67-.5A3.59,3.59,0,0,0,691,104a1.5,1.5,0,0,0-.43-.13.77.77,0,0,0-.4.05.79.79,0,0,0-.34.27l-3.52,4.68a4.76,4.76,0,0,1-.43.46,1.46,1.46,0,0,1-.5.28,1.21,1.21,0,0,1-.57,0,1.45,1.45,0,0,1-.48-.22l.05-.08-1.58-1a3.77,3.77,0,0,0,.43-.46,3.9,3.9,0,0,0,.36-.5c.08-.11.16-.24.25-.38s.17-.28.25-.43.15-.3.22-.45a2.69,2.69,0,0,0,.16-.45,3,3,0,0,0,.07-.89,3.16,3.16,0,0,0-.23-.89,3.47,3.47,0,0,0-.54-.83,3.77,3.77,0,0,0-.87-.74,4.11,4.11,0,0,0-1.17-.54,2.93,2.93,0,0,0-1.17-.09,2.67,2.67,0,0,0-1.1.4,3.22,3.22,0,0,0-.92,1l-1.16,1.79-1.21-.79v0l-.15-.07-.15-.1v0l-1.51-.79.93-1.81a5.83,5.83,0,0,0,.39-.9,3.79,3.79,0,0,0,.19-.91,2.74,2.74,0,0,0-.44-1.78,3.78,3.78,0,0,0-.75-.83,5.6,5.6,0,0,0-1.18-.77l-2-1-.07.14c-.08.15-.15.31-.22.48a1.53,1.53,0,0,0-.12.49.9.9,0,0,0,.08.45,1,1,0,0,0,.4.37l1.16.6a2.06,2.06,0,0,1,.73.6,1.6,1.6,0,0,1,.25.71,2.22,2.22,0,0,1-.1.75,4,4,0,0,1-.31.74l-.88,1.7-5.15-2.67,0,0-1.09-.45.78-1.88a5.92,5.92,0,0,0,.38-1.38,3.06,3.06,0,0,0-.1-1.35,3.1,3.1,0,0,0-.8-1.24,5.44,5.44,0,0,0-1.69-1l-.92-.38-.15.38a2.3,2.3,0,0,0-.14.45,1.21,1.21,0,0,0,0,.42.76.76,0,0,0,.16.37,1.2,1.2,0,0,0,.38.3l.17.07.05,0,.08,0a1.7,1.7,0,0,1,.59.52,1.64,1.64,0,0,1,.23.64,1.94,1.94,0,0,1,0,.71,3.74,3.74,0,0,1-.24.74l-.73,1.77-2.8-1.15a.81.81,0,0,0-.47-.07.93.93,0,0,0-.39.15,1.12,1.12,0,0,0-.29.32,2.32,2.32,0,0,0-.22.41l-.15.38,7.24,3h0l8.14,4.23,2.34,1.52.86,1.36.06,0,.45.27c.16.1.33.18.5.27a3.93,3.93,0,0,0,.54.2,2.56,2.56,0,0,0,.54.1H681l2,1.32,0,.06.61.45a3.18,3.18,0,0,0,1.61.7,2.59,2.59,0,0,0,1.47-.3,4.16,4.16,0,0,0,.77-.52A4.29,4.29,0,0,0,688,110.13ZM682.35,105a4.89,4.89,0,0,1-.2.48,5.19,5.19,0,0,1-.25.47l-.24.4a3.16,3.16,0,0,1-.37.45,1.73,1.73,0,0,1-.48.35,1.25,1.25,0,0,1-.53.13,1,1,0,0,1-.57-.16l-.76-1.21,1.06-1.62a2.28,2.28,0,0,1,.39-.48,1.08,1.08,0,0,1,.54-.28,1.15,1.15,0,0,1,.95.19,1.39,1.39,0,0,1,.39.37,1.07,1.07,0,0,1,.13.48A1.14,1.14,0,0,1,682.35,105Z" transform="translate(-54.56 -64.2)"/><path class="cls-1" d="M694.67,106.81a3.52,3.52,0,0,0-.42-.29,1.3,1.3,0,0,0-.43-.15.9.9,0,0,0-.4,0,.72.72,0,0,0-.35.26l-2.86,3.48-2.86,3.48-.1.13.65.53a2.64,2.64,0,0,0,.42.29,1.3,1.3,0,0,0,.43.15.9.9,0,0,0,.4,0,.72.72,0,0,0,.35-.26l5.82-7.08Z" transform="translate(-54.56 -64.2)"/><path class="cls-1" d="M699.35,120l.31-.32c.12-.12.23-.25.34-.38s.21-.27.31-.4a3.46,3.46,0,0,0,.23-.41,3,3,0,0,0,.25-.87,2.8,2.8,0,0,0,0-.91,3.51,3.51,0,0,0-.36-.92,4.49,4.49,0,0,0-1.75-1.66,3.15,3.15,0,0,0-1.13-.32,2.69,2.69,0,0,0-1.15.17,3.18,3.18,0,0,0-1.1.75l-.8.81c-.11.12-.23.25-.36.41a3.82,3.82,0,0,0-.35.51,4,4,0,0,0-.26.6,2.1,2.1,0,0,0-.08.66,1.81,1.81,0,0,0,.18.69,2.3,2.3,0,0,0,.51.71l3.11,3Zm-3.34-1.6a1,1,0,0,1-.37-.74A1,1,0,0,1,696,117l.58-.59A2.32,2.32,0,0,1,697,116a1.17,1.17,0,0,1,.49-.18,1.11,1.11,0,0,1,.51,0,1.28,1.28,0,0,1,.5.32,1.18,1.18,0,0,1,.3.45,1,1,0,0,1,0,.49,1.24,1.24,0,0,1-.15.4,3.7,3.7,0,0,1-.29.44c-.11.14-.22.28-.34.41l-.32.34-.37.37a4.32,4.32,0,0,1-.39.34Z" transform="translate(-54.56 -64.2)"/><path class="cls-1" d="M699.14,113.68a1.21,1.21,0,0,0,.37.25,1.25,1.25,0,0,0,.37.09,1.05,1.05,0,0,0,.65-.16,1.36,1.36,0,0,0-.13.3,1,1,0,0,0,0,.34,1,1,0,0,0,.1.37,1.09,1.09,0,0,0,.26.37,1.17,1.17,0,0,0,.44.28,1.33,1.33,0,0,0,.43.07,1,1,0,0,0,.39-.1.93.93,0,0,0,.3-.2,1.42,1.42,0,0,0,.2-.3,1.24,1.24,0,0,0,.09-.39,1.08,1.08,0,0,0-.37-.87,1.09,1.09,0,0,0-.37-.26.87.87,0,0,0-.37-.09,1,1,0,0,0-.35,0,1.12,1.12,0,0,0-.29.14,1.34,1.34,0,0,0,.12-.3,1.08,1.08,0,0,0,0-.36,1.05,1.05,0,0,0-.09-.37,1.29,1.29,0,0,0-.27-.37,1.13,1.13,0,0,0-.44-.28,1.14,1.14,0,0,0-.44-.06.93.93,0,0,0-.38.1,1.14,1.14,0,0,0-.3.21.91.91,0,0,0-.19.29.86.86,0,0,0-.09.39,1,1,0,0,0,.07.43A1.16,1.16,0,0,0,699.14,113.68Z" transform="translate(-54.56 -64.2)"/><path class="cls-1" d="M704.32,121.45l-.57-.63a3.09,3.09,0,0,0-.38-.35,1.19,1.19,0,0,0-.4-.21.68.68,0,0,0-.4,0,.74.74,0,0,0-.38.2l-.2.17-3.66,3.29-.27.22a2,2,0,0,1-.31.2,1.3,1.3,0,0,1-.32.14,1,1,0,0,1-.34,0,1.44,1.44,0,0,1-.43-.06.63.63,0,0,1-.33-.2l-.07-.07a.91.91,0,0,0-.41-.27.78.78,0,0,0-.4,0,1,1,0,0,0-.4.15,2.4,2.4,0,0,0-.37.28l-.28.25.58.64a4.43,4.43,0,0,0,1.35,1.08,2.74,2.74,0,0,0,1.26.29,2.58,2.58,0,0,0,1.15-.32,4.78,4.78,0,0,0,1-.72l3.53-3.16Z" transform="translate(-54.56 -64.2)"/><path class="cls-1" d="M704.76,133.72a1,1,0,0,0-.43-.14.94.94,0,0,0-.41,0,1,1,0,0,0-.34.15,1,1,0,0,0-.25.26,1,1,0,0,0-.17.38,1.08,1.08,0,0,0,.2.95,1.18,1.18,0,0,0,.82.52,1.19,1.19,0,0,0,.42,0,1,1,0,0,0,.34-.15,1,1,0,0,0,.25-.26,1.05,1.05,0,0,0,.17-.39,1.16,1.16,0,0,0,0-.46,1.33,1.33,0,0,0-.22-.49A1.07,1.07,0,0,0,704.76,133.72Z" transform="translate(-54.56 -64.2)"/><path class="cls-1" d="M716.11,135.68a1.28,1.28,0,0,0,.34.19,1,1,0,0,0,.35.06,1.13,1.13,0,0,0,.32-.06,1.79,1.79,0,0,0-.2.26,1.61,1.61,0,0,0-.12.33,1.21,1.21,0,0,0,0,.38,1.28,1.28,0,0,0,.51.8,1.22,1.22,0,0,0,.41.18.9.9,0,0,0,.4,0,1,1,0,0,0,.33-.11,1.07,1.07,0,0,0,.28-.25,1.31,1.31,0,0,0,.19-.35,1.25,1.25,0,0,0,0-.44,1.32,1.32,0,0,0-.18-.5,1.11,1.11,0,0,0-.63-.52,1,1,0,0,0-.34-.05,1.61,1.61,0,0,0-.33.06.86.86,0,0,0,.2-.26.92.92,0,0,0,.12-.34,1.21,1.21,0,0,0,0-.38,1.33,1.33,0,0,0-.51-.81,1,1,0,0,0-.41-.17.9.9,0,0,0-.4,0,1.15,1.15,0,0,0-.34.13,1.07,1.07,0,0,0-.26.23,1.19,1.19,0,0,0-.19.35,1.27,1.27,0,0,0,0,.44,1.3,1.3,0,0,0,.46.83Z" transform="translate(-54.56 -64.2)"/><path class="cls-1" d="M713.79,145.24a2.42,2.42,0,0,0-.12.56,2.3,2.3,0,0,0,.05.63,2.51,2.51,0,0,0,.26.66l0,0,.31.68a3.27,3.27,0,0,0,1.1,1.38,2.58,2.58,0,0,0,1.43.43,4.14,4.14,0,0,0,1.78-.39l6.13-2.84-.35-.76a2.42,2.42,0,0,0-.26-.45,1.22,1.22,0,0,0-.32-.32.85.85,0,0,0-.37-.15.84.84,0,0,0-.43.08l-5.31,2.46a3.81,3.81,0,0,1-.59.21,1.37,1.37,0,0,1-.57,0,1.11,1.11,0,0,1-.52-.26,1.52,1.52,0,0,1-.31-.41l0,0-.24-.45a1.69,1.69,0,0,1-.21-.69,1.06,1.06,0,0,1,.11-.56,1.25,1.25,0,0,1,.35-.45,2.7,2.7,0,0,1,.51-.35l5.95-3.19-.4-.75a2.69,2.69,0,0,0-.29-.43,1.15,1.15,0,0,0-.33-.3.8.8,0,0,0-.81,0l-5.18,2.78a2.72,2.72,0,0,1-.57.23,1.34,1.34,0,0,1-.56,0,1,1,0,0,1-.51-.22,1.42,1.42,0,0,1-.45-.55l0,0,0,0-.26-.44a1.63,1.63,0,0,1-.25-.68,1.16,1.16,0,0,1,.09-.56,1.31,1.31,0,0,1,.33-.46,3.05,3.05,0,0,1,.49-.38l2.54-1.51-.43-.73a3.38,3.38,0,0,0-.31-.41,1.31,1.31,0,0,0-.34-.29.76.76,0,0,0-.39-.1.71.71,0,0,0-.42.12l-1.76,1.05a2.57,2.57,0,0,1-.56.26,1.4,1.4,0,0,1-.57.07,1.08,1.08,0,0,1-.53-.18,1.84,1.84,0,0,1-.48-.54l0,0,.07-.06-1.18-1.68,1.67-1.17a6.62,6.62,0,0,0,.76-.62,4,4,0,0,0,.59-.72,3.07,3.07,0,0,0,.36-.83,2.69,2.69,0,0,0,.06-.95,3.6,3.6,0,0,0-.28-1.08,5.53,5.53,0,0,0-.69-1.23l-1.29-1.85-.13.1a3.9,3.9,0,0,0-.42.32,1.42,1.42,0,0,0-.33.37.9.9,0,0,0-.13.45.83.83,0,0,0,.18.51l.75,1.07a1.86,1.86,0,0,1,.37.86,1.56,1.56,0,0,1-.11.75,2.1,2.1,0,0,1-.43.62,5.07,5.07,0,0,1-.61.52l-1.57,1.1-3.34-4.75-.08.06,0,0A1.61,1.61,0,0,1,704,128a1,1,0,0,1,0-.58,1.43,1.43,0,0,1,.28-.51,3.36,3.36,0,0,1,.47-.45l5.17-4.23-.53-.64a2.53,2.53,0,0,0-.36-.37,1.12,1.12,0,0,0-.39-.23.78.78,0,0,0-.4,0,.86.86,0,0,0-.39.18l-4.48,3.66a7.54,7.54,0,0,0-.59.55,3.69,3.69,0,0,0-.48.64,2.83,2.83,0,0,0-.31.74,2.23,2.23,0,0,0-.07.82,3,3,0,0,0,.25.91,4.31,4.31,0,0,0,.64,1l.56.68.05,0,5.1,7.26,0,0,.53.88a3.27,3.27,0,0,0,1,1.15,2.49,2.49,0,0,0,1.23.4,3.92,3.92,0,0,0-.22.51,2,2,0,0,0-.09.56,1.92,1.92,0,0,0,.08.62,2.31,2.31,0,0,0,.27.64h0l.49.9a3.23,3.23,0,0,0,1,1.19,2.52,2.52,0,0,0,1.21.47A3.71,3.71,0,0,0,713.79,145.24Z" transform="translate(-54.56 -64.2)"/><path class="cls-1" d="M715.6,160.17a1.35,1.35,0,0,0-.07.36,1.33,1.33,0,0,0,.07.43,1.22,1.22,0,0,0,.25.45,1.1,1.1,0,0,0,.36.26.92.92,0,0,0,.39.09,1,1,0,0,0,.36,0,.92.92,0,0,0,.31-.18,1.12,1.12,0,0,0,.33-1.24,1.24,1.24,0,0,0-.2-.38,1,1,0,0,0-.26-.25,1.23,1.23,0,0,0-.31-.14,1.1,1.1,0,0,0-.31,0,.76.76,0,0,0,.23-.21,1,1,0,0,0,.17-.28,1.08,1.08,0,0,0,0-.79,1.09,1.09,0,0,0-.26-.46.94.94,0,0,0-.36-.25,1,1,0,0,0-.38-.09,1.36,1.36,0,0,0-.36.05,1.38,1.38,0,0,0-.31.17.86.86,0,0,0-.25.31,1.11,1.11,0,0,0-.14.41,1.21,1.21,0,0,0,.06.52,1.15,1.15,0,0,0,.2.38,1.52,1.52,0,0,0,.26.25.93.93,0,0,0,.31.13,1.15,1.15,0,0,0,.31,0,1.51,1.51,0,0,0-.23.21A1.18,1.18,0,0,0,715.6,160.17Z" transform="translate(-54.56 -64.2)"/><path class="cls-1" d="M723.28,158.15a6.31,6.31,0,0,0-.72.18l-3.26,1.07-.2-.61a7,7,0,0,1-.3-1.2,2.35,2.35,0,0,1,.06-1,1.61,1.61,0,0,1,.52-.79,3.19,3.19,0,0,1,1.11-.58,3,3,0,0,1,1.13-.15l.15,0h.14a.7.7,0,0,0,.29,0,.56.56,0,0,0,.28-.19.87.87,0,0,0,.17-.3,1.9,1.9,0,0,0,.09-.36c0-.12,0-.24,0-.36a2.91,2.91,0,0,0,0-.3c0-.1,0-.21,0-.32V153l-.18,0a9.61,9.61,0,0,0-1.51,0,6.22,6.22,0,0,0-1.45.29,4.22,4.22,0,0,0-1.68,1,3.07,3.07,0,0,0-.81,1.37,4.37,4.37,0,0,0-.11,1.67,10.64,10.64,0,0,0,.43,1.87l.9,2.73,4.82-1.59a2.26,2.26,0,0,1,.53-.1,1.58,1.58,0,0,1,.53.07,1.11,1.11,0,0,1,.45.27,1.31,1.31,0,0,1,.31.53,1,1,0,0,1,.05.55,1,1,0,0,1-.23.42,1.64,1.64,0,0,1-.41.31,5.27,5.27,0,0,1-.49.22q-.47.19-.93.36c-.31.12-.63.22-.94.31l-.16.06.25.76a2.56,2.56,0,0,0,.21.47,1.1,1.1,0,0,0,.28.32.67.67,0,0,0,.34.16.84.84,0,0,0,.41,0l1.2-.39.63-.23a2.61,2.61,0,0,0,.6-.35,2.53,2.53,0,0,0,.69-.85,3.25,3.25,0,0,0,.29-1.93,4.7,4.7,0,0,0-.18-.74,3.7,3.7,0,0,0-1-1.67,2.67,2.67,0,0,0-1.55-.66A3.33,3.33,0,0,0,723.28,158.15Z" transform="translate(-54.56 -64.2)"/><path class="cls-1" d="M725.53,169.88l-1.88.4-.63-3a1,1,0,0,0-.2-.43.89.89,0,0,0-.35-.23,1,1,0,0,0-.43-.06,2.4,2.4,0,0,0-.46,0l-.4.09,1.63,7.66h.07v.08a3.31,3.31,0,0,0,.45,1.43,2.5,2.5,0,0,0,.91.89,2.4,2.4,0,0,0-.39.39,2.07,2.07,0,0,0-.3.5,2.38,2.38,0,0,0-.19,1.29,2.84,2.84,0,0,0,.16.72,2.06,2.06,0,0,0,.3.55,2.21,2.21,0,0,0,.41.4,2.23,2.23,0,0,0,.48.26,2.75,2.75,0,0,0-.4.43,2.43,2.43,0,0,0-.31.54,3.09,3.09,0,0,0-.18.65,3.72,3.72,0,0,0,0,.75,3.08,3.08,0,0,0,.29,1,2.34,2.34,0,0,0,.6.75,2.16,2.16,0,0,0,.85.44,2.88,2.88,0,0,0,1.07.08l3.7-.39-.08-.8a4,4,0,0,0-.1-.5,1.5,1.5,0,0,0-.2-.4.79.79,0,0,0-.31-.26.74.74,0,0,0-.43-.06l-2.4.25a1.85,1.85,0,0,1-.47,0,1.07,1.07,0,0,1-.4-.15.86.86,0,0,1-.3-.3,1.33,1.33,0,0,1-.09-1,1,1,0,0,1,.25-.39,1.39,1.39,0,0,1,.38-.25,1.91,1.91,0,0,1,.47-.12l3.22-.34-.08-.76a2.71,2.71,0,0,0-.1-.51,1.36,1.36,0,0,0-.2-.4.93.93,0,0,0-.31-.25.81.81,0,0,0-.42-.06l-2.49.27a1.52,1.52,0,0,1-.43,0,.84.84,0,0,1-.38-.15.77.77,0,0,1-.28-.31,1.08,1.08,0,0,1-.14-.47,1,1,0,0,1,.07-.56,1.1,1.1,0,0,1,.31-.43,5.11,5.11,0,0,0,.55.05,3.41,3.41,0,0,0,.55,0l2.93-.31-.08-.81a4.14,4.14,0,0,0-.09-.46,1.5,1.5,0,0,0-.18-.43.76.76,0,0,0-.3-.29.7.7,0,0,0-.47-.08l-2,.21a2.58,2.58,0,0,1-.62,0,1.55,1.55,0,0,1-.54-.17,1.12,1.12,0,0,1-.41-.4,1.56,1.56,0,0,1-.21-.68l0-.22-.14,0-.24-1.17,2-.42a5.9,5.9,0,0,0,1.36-.47,2.8,2.8,0,0,0,1-.85,3.07,3.07,0,0,0,.57-1.35,5.23,5.23,0,0,0-.1-2l-.21-1-.4.09a2.15,2.15,0,0,0-.45.14,1,1,0,0,0-.35.22.87.87,0,0,0-.22.34,1.23,1.23,0,0,0,0,.48l0,.18a.43.43,0,0,0,0,.05.46.46,0,0,0,0,.1,1.74,1.74,0,0,1-.1.78,1.5,1.5,0,0,1-.39.54,2.31,2.31,0,0,1-.61.37A5.92,5.92,0,0,1,725.53,169.88Z" transform="translate(-54.56 -64.2)"/><path class="cls-1" d="M731.88,179.67a.91.91,0,0,0-.4.14,1,1,0,0,0-.3.29,1.21,1.21,0,0,0-.18.38,1.16,1.16,0,0,0,0,.42,1.14,1.14,0,0,0,.16.48.93.93,0,0,0,.3.32.88.88,0,0,0,.35.17,1,1,0,0,0,.34,0,.93.93,0,0,0,.34-.1,1.08,1.08,0,0,0,.32-.24,1.08,1.08,0,0,0,.27-.88,1.23,1.23,0,0,0-.15-.5,1.32,1.32,0,0,0-.3-.32,1.17,1.17,0,0,0-.36-.16A1.1,1.1,0,0,0,731.88,179.67Z" transform="translate(-54.56 -64.2)"/><path class="cls-1" d="M734.71,178.84a.91.91,0,0,0-.29-.32,1,1,0,0,0-.36-.17,1.08,1.08,0,0,0-.35,0,1,1,0,0,0-.33.1,1.22,1.22,0,0,0-.32.24,1.4,1.4,0,0,0-.22.38,1.17,1.17,0,0,0-.05.51,1.13,1.13,0,0,0,.15.49,1,1,0,0,0,.3.32,1,1,0,0,0,.35.16,1.1,1.1,0,0,0,.35,0,.88.88,0,0,0,.34-.1,1,1,0,0,0,.32-.23,1.09,1.09,0,0,0,.22-.38,1.37,1.37,0,0,0-.11-1Z" transform="translate(-54.56 -64.2)"/><path class="cls-1" d="M731.17,179.42a1.08,1.08,0,0,0,.36.17,1,1,0,0,0,.34,0,1,1,0,0,0,.34-.11.9.9,0,0,0,.32-.23,1.19,1.19,0,0,0,.22-.38,1.23,1.23,0,0,0,0-.52,1.14,1.14,0,0,0-.45-.8,1.12,1.12,0,0,0-.37-.17,1,1,0,0,0-.34,0,.91.91,0,0,0-.4.14,1,1,0,0,0-.3.28,1.22,1.22,0,0,0-.22.8,1,1,0,0,0,.16.49A1.17,1.17,0,0,0,731.17,179.42Z" transform="translate(-54.56 -64.2)"/><path class="cls-1" d="M734,187.88a1.32,1.32,0,0,0-.17-.42.86.86,0,0,0-.28-.29.83.83,0,0,0-.43-.1l-4.5.11-4.51.1H724v.85a4,4,0,0,0,.06.5,1.31,1.31,0,0,0,.16.42.89.89,0,0,0,.29.29.79.79,0,0,0,.42.09l9.17-.2,0-.84A2.76,2.76,0,0,0,734,187.88Z" transform="translate(-54.56 -64.2)"/><path class="cls-1" d="M733.66,198a.88.88,0,0,0-.26-.31.78.78,0,0,0-.42-.14l-5.84-.42a3,3,0,0,1-.61-.1,1.38,1.38,0,0,1-.51-.27,1.13,1.13,0,0,1-.32-.47,1.8,1.8,0,0,1-.08-.5h0l0-1.69,3.22.08,1.36,0,0-.85a2.24,2.24,0,0,0,0-.52,1.81,1.81,0,0,0-.14-.43.84.84,0,0,0-.27-.29.74.74,0,0,0-.42-.12h-.26l-4.92-.13-.35,0a2.08,2.08,0,0,1-.36-.06,1.2,1.2,0,0,1-.33-.13.92.92,0,0,1-.28-.19,1.44,1.44,0,0,1-.28-.34.69.69,0,0,1-.1-.37v-.11a1,1,0,0,0-.11-.47.78.78,0,0,0-.28-.29,1,1,0,0,0-.39-.16,3.55,3.55,0,0,0-.47-.06h-.36l0,.86a4.37,4.37,0,0,0,.22,1.67,2.59,2.59,0,0,0,.68,1.06,2.51,2.51,0,0,0,1,.58,4.64,4.64,0,0,0,1.18.21l0,1.21-.05.72a3.21,3.21,0,0,0,.29,1.73,2.73,2.73,0,0,0,1,1.08,4.61,4.61,0,0,0,.86.36,4.49,4.49,0,0,0,.89.16l6.73.48.06-.84a2.89,2.89,0,0,0,0-.51A1.42,1.42,0,0,0,733.66,198Z" transform="translate(-54.56 -64.2)"/><path class="cls-1" d="M733.05,201.79a.84.84,0,0,0-.41-.15l-4.47-.51-4.48-.51h-.16l-.1.83a3,3,0,0,0,0,.52,1.43,1.43,0,0,0,.1.43.8.8,0,0,0,.25.32.76.76,0,0,0,.41.16l9.11,1,.09-.84a3.05,3.05,0,0,0,0-.52,1.24,1.24,0,0,0-.11-.44A.85.85,0,0,0,733.05,201.79Z" transform="translate(-54.56 -64.2)"/><path class="cls-1" d="M732,210.31a1.06,1.06,0,0,0-.29-.27,1.13,1.13,0,0,0-.33-.13,1.08,1.08,0,0,0-.36,0,.87.87,0,0,0-.37.13,1,1,0,0,0-.33.29,1.18,1.18,0,0,0-.2.48,1.15,1.15,0,0,0,0,.45,1,1,0,0,0,.12.36,1,1,0,0,0,.22.28l.27.18a1.12,1.12,0,0,0-.31,0,1.14,1.14,0,0,0-.31.16,1,1,0,0,0-.26.29,1.18,1.18,0,0,0-.17.41,1.14,1.14,0,0,0,.18.92,1,1,0,0,0,.29.28.94.94,0,0,0,.33.14,1.42,1.42,0,0,0,.36,0,1.17,1.17,0,0,0,.38-.14,1.1,1.1,0,0,0,.32-.29,1.16,1.16,0,0,0,.21-.49,1.41,1.41,0,0,0,0-.45,1.09,1.09,0,0,0-.35-.63l-.27-.18a1.25,1.25,0,0,0,.32,0,1.3,1.3,0,0,0,.31-.16,1.15,1.15,0,0,0,.42-.71,1.19,1.19,0,0,0,0-.53A1,1,0,0,0,732,210.31Z" transform="translate(-54.56 -64.2)"/><path class="cls-1" d="M729.2,209.5a2.55,2.55,0,0,0-.77-.87,3.14,3.14,0,0,0-1.23-.52l-1.24-.25a2.35,2.35,0,0,0-.54-.06,1.83,1.83,0,0,0-.56.07l-.44.15a3.92,3.92,0,0,0-.47.22,2.66,2.66,0,0,0-.44.33,2,2,0,0,0-.37.45,5,5,0,0,0-.36.78,5.25,5.25,0,0,0-.23.84,7.82,7.82,0,0,0-.13.8c0,.27,0,.53,0,.8a2.17,2.17,0,0,0-.67.61,2.4,2.4,0,0,0-.4,1l-.14.67-2,6.92,1.43.42a5.86,5.86,0,0,0,.69.16,4.78,4.78,0,0,0,.76.08,4.11,4.11,0,0,0,.78-.07,2.37,2.37,0,0,0,.76-.3,2.72,2.72,0,0,0,.85-.74,4.1,4.1,0,0,0,.57-1L727,223a1.2,1.2,0,0,0,.22.23,1.11,1.11,0,0,0,.27.13.67.67,0,0,0,.37,0,1.42,1.42,0,0,0,.35-.11,1.61,1.61,0,0,0,.31-.19l.31-.21.19-.14-.12-.19L727.18,220l-1.77-2.62,0-.05-1.21-.35c0,.08,0,.16-.07.24s0,.15-.06.24l-.06.25h0l-.26.84a1.9,1.9,0,0,1-.83,1.2,2.2,2.2,0,0,1-1.51.09l1.33-4.54h0l.07-.35v0h0l0-.17c0-.12.07-.24.12-.36a.8.8,0,0,1,.19-.32l1.84.38.45.09.48.07.5.05a2.5,2.5,0,0,0,.48,0,2.86,2.86,0,0,0,.86-.26,2.72,2.72,0,0,0,.74-.53,3.38,3.38,0,0,0,.59-.81,4.08,4.08,0,0,0,.37-1.07,4.4,4.4,0,0,0,.08-1.29A3,3,0,0,0,729.2,209.5Zm-1.42,2.13a1.48,1.48,0,0,1-.21.49,1,1,0,0,1-.39.3,1.09,1.09,0,0,1-.43.1,3,3,0,0,1-.52,0,4.52,4.52,0,0,1-.53-.06l-.46-.09-.51-.11-.5-.14.29-1.39a.94.94,0,0,1,1.22-.82l.82.17a2.83,2.83,0,0,1,.56.19,1.37,1.37,0,0,1,.42.32,1.09,1.09,0,0,1,.24.45A1.51,1.51,0,0,1,727.78,211.63Z" transform="translate(-54.56 -64.2)"/><path class="cls-1" d="M724.79,236.12a.9.9,0,0,0-.63-.29,1.08,1.08,0,0,0-.39,0,1.11,1.11,0,0,0-.38.21,1.34,1.34,0,0,0-.31.41,1.25,1.25,0,0,0-.12.5,1,1,0,0,0,.09.43,1,1,0,0,0,.22.32,1.28,1.28,0,0,0,.28.21,1.2,1.2,0,0,0,.35.08.87.87,0,0,0,.39,0,.93.93,0,0,0,.38-.2,1.13,1.13,0,0,0,.3-.42,1.1,1.1,0,0,0,.13-.5,1,1,0,0,0-.09-.43A1.21,1.21,0,0,0,724.79,236.12Z" transform="translate(-54.56 -64.2)"/><path class="cls-1" d="M722.52,236.33a1,1,0,0,0-.28-.2,1,1,0,0,0-.42-.09,1.37,1.37,0,0,0-.4.09,1.32,1.32,0,0,0-.35.23,1.24,1.24,0,0,0-.25.35,1,1,0,0,0-.11.49,1.18,1.18,0,0,0,.08.43,1,1,0,0,0,.23.33.94.94,0,0,0,.27.2,1.13,1.13,0,0,0,.34.09,1.07,1.07,0,0,0,.4,0,1.27,1.27,0,0,0,.38-.2,1.15,1.15,0,0,0,.31-.42,1.22,1.22,0,0,0,.12-.5,1,1,0,0,0-.09-.43A1.09,1.09,0,0,0,722.52,236.33Z" transform="translate(-54.56 -64.2)"/><path class="cls-1" d="M720,233.8l-2.26-1.05a2,2,0,0,1-.37-.24.82.82,0,0,1-.24-.32,1,1,0,0,1-.09-.41,1.33,1.33,0,0,1,.13-.48,1,1,0,0,1,.35-.44,1.08,1.08,0,0,1,.49-.21,3.28,3.28,0,0,0,.44.32,3.72,3.72,0,0,0,.48.27l2.68,1.25.34-.74c.06-.14.11-.29.16-.44a1.51,1.51,0,0,0,.07-.46.86.86,0,0,0-.1-.41.78.78,0,0,0-.37-.31l-1.86-.87a3.07,3.07,0,0,1-.53-.31,1.3,1.3,0,0,1-.38-.43,1.09,1.09,0,0,1-.14-.54,1.52,1.52,0,0,1,.17-.7l.09-.19-.17-.08.42-1.13,3,1.1,1.28.47.29-.8a3.36,3.36,0,0,0,.13-.5,1.69,1.69,0,0,0,0-.45.82.82,0,0,0-.16-.37.86.86,0,0,0-.36-.25l-.25-.09-4.62-1.68-.33-.13A1.92,1.92,0,0,1,718,223a1.6,1.6,0,0,1-.28-.22,1,1,0,0,1-.2-.28,1.45,1.45,0,0,1-.16-.4.74.74,0,0,1,0-.39l0-.1a.91.91,0,0,0,0-.48.74.74,0,0,0-.17-.37,1.07,1.07,0,0,0-.32-.27,2,2,0,0,0-.42-.2l-.35-.13-.29.82a4.38,4.38,0,0,0-.32,1.65,2.53,2.53,0,0,0,1.07,2.09,4.9,4.9,0,0,0,1.06.57l-.58,1.6.12.05,0,.09a3.51,3.51,0,0,0-.36,1.46,2.57,2.57,0,0,0,.33,1.23,2.69,2.69,0,0,0-.54.14,2.23,2.23,0,0,0-.51.26,2.64,2.64,0,0,0-.46.43,2.47,2.47,0,0,0-.37.59,2.72,2.72,0,0,0-.23.7,2.26,2.26,0,0,0,0,.63,2.48,2.48,0,0,0,.15.55,2.18,2.18,0,0,0,.28.46,3.08,3.08,0,0,0-.57.17,3.29,3.29,0,0,0-.55.3,3,3,0,0,0-.48.47,2.8,2.8,0,0,0-.39.63,2.7,2.7,0,0,0-.28,1,2.19,2.19,0,0,0,.12,1,2.15,2.15,0,0,0,.5.81,2.78,2.78,0,0,0,.88.62l3.37,1.57.34-.72a3.47,3.47,0,0,0,.17-.48,1.42,1.42,0,0,0,0-.45.82.82,0,0,0-.13-.38.8.8,0,0,0-.34-.28l-2.19-1a2.17,2.17,0,0,1-.39-.25,1.23,1.23,0,0,1-.28-.33,1.08,1.08,0,0,1-.1-.42,1.28,1.28,0,0,1,.13-.5,1.23,1.23,0,0,1,.33-.43,1.07,1.07,0,0,1,.41-.21,1.42,1.42,0,0,1,.46,0,1.76,1.76,0,0,1,.46.14l2.94,1.37.32-.7a2.34,2.34,0,0,0,.18-.48,1.17,1.17,0,0,0,0-.45.82.82,0,0,0-.13-.37A.79.79,0,0,0,720,233.8Z" transform="translate(-54.56 -64.2)"/><path class="cls-1" d="M723.21,234a1,1,0,0,0-.41-.09.9.9,0,0,0-.4.09,1,1,0,0,0-.35.23,1.07,1.07,0,0,0-.25.35,1,1,0,0,0-.12.5,1,1,0,0,0,.09.43,1.15,1.15,0,0,0,.21.33,1.62,1.62,0,0,0,.28.2,1.13,1.13,0,0,0,.34.08.91.91,0,0,0,.4,0,1.11,1.11,0,0,0,.38-.21,1.09,1.09,0,0,0,.31-.41,1.22,1.22,0,0,0,.12-.5,1,1,0,0,0-.09-.43,1,1,0,0,0-.23-.33A.86.86,0,0,0,723.21,234Z" transform="translate(-54.56 -64.2)"/><path class="cls-1" d="M637.14,102l-3.13,5.2c-.36.6-.14,1,.65,1.16l.26.06.88-1.54,2.17.43.21,1.77.21,0c.89.2,1.27-.07,1.16-.8l-.9-6Zm-.78,3.85,1.2-2.09.29,2.39Z" transform="translate(-54.56 -64.2)"/><path class="cls-1" d="M644.55,109.53a.59.59,0,0,0-.25-.13l-2.31-.63,1.46-5.34-.55-.15a2,2,0,0,0-.34-.06.73.73,0,0,0-.3,0,.46.46,0,0,0-.23.12.56.56,0,0,0-.15.26l-.27,1h0l-1.33,4.9,4.29,1.17.12-.44a1.51,1.51,0,0,0,.05-.28.69.69,0,0,0,0-.25A.49.49,0,0,0,644.55,109.53Z" transform="translate(-54.56 -64.2)"/><path class="cls-1" d="M651.7,108.27a2.09,2.09,0,0,0,.13-.81,1.67,1.67,0,0,0-.19-.79,2.11,2.11,0,0,0-.56-.69,3.11,3.11,0,0,0-1-.51l-1.77-.61a1.32,1.32,0,0,0-.33-.08.76.76,0,0,0-.3,0,.71.71,0,0,0-.25.11.57.57,0,0,0-.16.25l-1.53,4.48h0l-.45,1.32.53.18a1.32,1.32,0,0,0,.33.08.76.76,0,0,0,.3,0,.64.64,0,0,0,.25-.11.57.57,0,0,0,.16-.25l.6-1.75,1,.34.43,2.74.27.1c.86.28,1.22,0,1.07-.83l-.3-1.75a2.14,2.14,0,0,0,.65-.16,2.23,2.23,0,0,0,.51-.33,2.54,2.54,0,0,0,.37-.43A2,2,0,0,0,651.7,108.27Zm-1.42-.46a1.73,1.73,0,0,1-.18.36.92.92,0,0,1-.28.24.88.88,0,0,1-.37.1,1.27,1.27,0,0,1-.48-.08l-1.13-.39.66-1.9,1.1.38a1.28,1.28,0,0,1,.42.23.82.82,0,0,1,.25.31.86.86,0,0,1,.08.36A1.07,1.07,0,0,1,650.28,107.81Z" transform="translate(-54.56 -64.2)"/><path class="cls-1" d="M651.37,112c-.47.52-.34.94.4,1.27l.25.1L653.2,112l2,.86-.15,1.77.2.09c.82.37,1.25.19,1.29-.55l.34-6.08-1.41-.6Zm4-.25-1.4-.59,1.59-1.81Z" transform="translate(-54.56 -64.2)"/><path class="cls-1" d="M662.79,115.44a1.48,1.48,0,0,0-.1-.66,2,2,0,0,0-.38-.64,4.82,4.82,0,0,0-.64-.64l-.3-.24-.29-.26a2.89,2.89,0,0,1-.31-.28,1.46,1.46,0,0,1-.23-.29.84.84,0,0,1-.1-.29.54.54,0,0,1,.06-.3.65.65,0,0,1,.23-.26.84.84,0,0,1,.31-.12,1.31,1.31,0,0,1,.39,0,1.56,1.56,0,0,1,.42.16,1.33,1.33,0,0,1,.64.59.88.88,0,0,1,0,.73l0,.06-.05.1.47.25a1.21,1.21,0,0,0,.3.11,1,1,0,0,0,.28,0,.52.52,0,0,0,.23-.08.34.34,0,0,0,.13-.14.3.3,0,0,0,0-.1l.06-.19c0-.05,0-.12,0-.22a2.05,2.05,0,0,0-.16-.81,2.38,2.38,0,0,0-.52-.74,3.21,3.21,0,0,0-.89-.63,3.34,3.34,0,0,0-1-.35,2.64,2.64,0,0,0-.93,0,1.87,1.87,0,0,0-.76.34,1.84,1.84,0,0,0-.53.64,1.67,1.67,0,0,0-.2,1,2.07,2.07,0,0,0,.16.52,2.48,2.48,0,0,0,.37.54,2.73,2.73,0,0,0,.23.25l.26.23.66.56.33.31a1.5,1.5,0,0,1,.23.3.85.85,0,0,1,.09.31.61.61,0,0,1-.07.31.64.64,0,0,1-.24.27.85.85,0,0,1-.35.11,1.54,1.54,0,0,1-.42,0,2.2,2.2,0,0,1-.44-.17,1.71,1.71,0,0,1-.43-.29,1.44,1.44,0,0,1-.28-.34.91.91,0,0,1-.13-.38.78.78,0,0,1,.05-.4l0-.07.13-.24-.47-.24a1.88,1.88,0,0,0-.3-.12.71.71,0,0,0-.28,0,.67.67,0,0,0-.25.08.52.52,0,0,0-.19.22l-.08.19a1.9,1.9,0,0,0,0,.41,1.92,1.92,0,0,0,.18.82,2.57,2.57,0,0,0,.55.76,4,4,0,0,0,.92.64,4.42,4.42,0,0,0,1.1.39,2.59,2.59,0,0,0,1,0,1.88,1.88,0,0,0,.79-.35,2,2,0,0,0,.57-.68A2.05,2.05,0,0,0,662.79,115.44Z" transform="translate(-54.56 -64.2)"/><path class="cls-1" d="M670.31,115.29a1.3,1.3,0,0,0-.31-.16.79.79,0,0,0-.29-.06.6.6,0,0,0-.27.06.57.57,0,0,0-.21.2c-.36.6-.72,1.2-1.09,1.8l-2.47-1.51,1.41-2.31-.48-.3a1.77,1.77,0,0,0-.31-.15.79.79,0,0,0-.29-.06.6.6,0,0,0-.27.06.57.57,0,0,0-.21.2L664,115.63c-.51.85-1,1.71-1.57,2.57l0,.09.48.3a2.1,2.1,0,0,0,.3.15.84.84,0,0,0,.3.06.58.58,0,0,0,.26-.06.57.57,0,0,0,.21-.2l1.16-1.9,2.47,1.51L666,120.57l.48.29a1.77,1.77,0,0,0,.31.15.79.79,0,0,0,.29.06.58.58,0,0,0,.26-.06.5.5,0,0,0,.21-.2l3.2-5.23Z" transform="translate(-54.56 -64.2)"/><path class="cls-1" d="M674.89,122.61a4.46,4.46,0,0,0,.65-1.26,2.76,2.76,0,0,0-.34-2.37,4,4,0,0,0-1-1l-1.34-1a1.81,1.81,0,0,0-.29-.17.88.88,0,0,0-.29-.09.59.59,0,0,0-.27,0,.51.51,0,0,0-.23.19l-1,1.43h0l-2.55,3.52,2.07,1.5a3.76,3.76,0,0,0,1.27.63,2.87,2.87,0,0,0,1.23.06,3,3,0,0,0,1.14-.49A4.62,4.62,0,0,0,674.89,122.61Zm-1.73-.28a1.86,1.86,0,0,1-.66.39,1.51,1.51,0,0,1-.77.07,2.18,2.18,0,0,1-.88-.4l-.78-.57,2.54-3.51.79.56a2.46,2.46,0,0,1,.49.47,1.55,1.55,0,0,1,.26.49,1.42,1.42,0,0,1,.08.5,1.62,1.62,0,0,1-.08.49,2,2,0,0,1-.19.48,2.52,2.52,0,0,1-.28.44A3.66,3.66,0,0,1,673.16,122.33Z" transform="translate(-54.56 -64.2)"/><path class="cls-1" d="M678.51,121.27a2.4,2.4,0,0,0-.29-.19.79.79,0,0,0-.28-.1.6.6,0,0,0-.27,0,.56.56,0,0,0-.24.18l-1.89,2.34c-.62.78-1.26,1.56-1.89,2.34l-.07.09.44.35a1.54,1.54,0,0,0,.28.19.84.84,0,0,0,.29.1.5.5,0,0,0,.27,0,.54.54,0,0,0,.23-.18l3.86-4.76Z" transform="translate(-54.56 -64.2)"/><path class="cls-1" d="M684,127.72a.54.54,0,0,0,.51.14,1.05,1.05,0,0,0,.26-.13,2.25,2.25,0,0,0,.24-.21l.24-.27-4-3.68-.25.27a1.57,1.57,0,0,0-.2.25,1.12,1.12,0,0,0-.11.26.57.57,0,0,0,0,.26.63.63,0,0,0,.16.25l1,.93-3.77,4.06.41.38a2.47,2.47,0,0,0,.27.21.94.94,0,0,0,.28.12.62.62,0,0,0,.27,0,.63.63,0,0,0,.25-.16l3.35-3.62Z" transform="translate(-54.56 -64.2)"/><path class="cls-1" d="M686.51,133.91a2,2,0,0,0,.6-.06,2.44,2.44,0,0,0,.53-.21,3,3,0,0,0,.44-.33,2.57,2.57,0,0,0,.49-.66,2,2,0,0,0,.19-.79,2,2,0,0,0-.18-.87,3.25,3.25,0,0,0-.63-.91l-1.28-1.36a2.53,2.53,0,0,0-.26-.22.87.87,0,0,0-.27-.14.5.5,0,0,0-.27,0,.51.51,0,0,0-.26.14l-3.43,3.26h0l-1,1,.39.41a2.46,2.46,0,0,0,.25.22.87.87,0,0,0,.27.14.62.62,0,0,0,.27,0,.6.6,0,0,0,.26-.14l1.34-1.28.72.76-.89,2.63.2.21c.64.65,1.08.57,1.33-.23l.55-1.7A2.29,2.29,0,0,0,686.51,133.91Zm-1.75-2.59,1.45-1.38.81.84a1.28,1.28,0,0,1,.27.4.77.77,0,0,1,.07.39.8.8,0,0,1-.09.36,1.18,1.18,0,0,1-.24.31,1.32,1.32,0,0,1-.33.23.74.74,0,0,1-.36.09,1.08,1.08,0,0,1-.38-.08,1.38,1.38,0,0,1-.38-.3Z" transform="translate(-54.56 -64.2)"/><path class="cls-1" d="M689.63,140.83l3.13-5.21-1-1.19-5.72,2c-.66.24-.74.67-.24,1.31l.17.2,1.66-.62,1.39,1.71-.95,1.5.14.16C688.79,141.44,689.25,141.47,689.63,140.83Zm-.9-3.92,2.25-.86-1.29,2Z" transform="translate(-54.56 -64.2)"/><path class="cls-1" d="M694.25,145.71a4.18,4.18,0,0,0,1.27-.63,4,4,0,0,0,1-1,2.73,2.73,0,0,0,.46-2.34,4,4,0,0,0-.61-1.28l-.95-1.36a1.43,1.43,0,0,0-.22-.26.83.83,0,0,0-.25-.18.47.47,0,0,0-.26-.05.5.5,0,0,0-.27.1l-1.46,1h0l-3.57,2.48,1.46,2.1a3.7,3.7,0,0,0,1,1,2.67,2.67,0,0,0,1.14.46A2.94,2.94,0,0,0,694.25,145.71Zm-1.76-1.5a2,2,0,0,1-.7-.67l-.56-.79,3.56-2.48.55.79a2.15,2.15,0,0,1,.31.6,1.57,1.57,0,0,1,0,1.05,2,2,0,0,1-.23.44,3.17,3.17,0,0,1-.34.39,4.23,4.23,0,0,1-.41.33,4.64,4.64,0,0,1-.69.38,2,2,0,0,1-.75.15A1.54,1.54,0,0,1,692.49,144.21Z" transform="translate(-54.56 -64.2)"/><path class="cls-1" d="M699.37,145a3.17,3.17,0,0,0-.21-.27.72.72,0,0,0-.24-.19.59.59,0,0,0-.26-.07.54.54,0,0,0-.28.09l-2.55,1.59-2.56,1.59-.09.06.29.48a3.17,3.17,0,0,0,.21.27,1,1,0,0,0,.23.19.68.68,0,0,0,.27.07.48.48,0,0,0,.27-.09l5.21-3.24Z" transform="translate(-54.56 -64.2)"/><path class="cls-1" d="M703,151.38a1.27,1.27,0,0,0-.18-.27.73.73,0,0,0-.22-.18.45.45,0,0,0-.25-.07.52.52,0,0,0-.28.08l-2.63,1.45-.62.33,2.2-4.95-.14-.25a1.73,1.73,0,0,0-.23-.36,1,1,0,0,0-.22-.2.59.59,0,0,0-.26-.07.51.51,0,0,0-.28.07l-5.37,3,.26.48a2.75,2.75,0,0,0,.19.28,1,1,0,0,0,.22.19.55.55,0,0,0,.25.07.5.5,0,0,0,.28-.08l.57-.3h0l2.7-1.48-2.3,4.79.26.47a1,1,0,0,0,.18.26.93.93,0,0,0,.21.19.77.77,0,0,0,.26.07.63.63,0,0,0,.28-.08l5.37-2.95Z" transform="translate(-54.56 -64.2)"/><path class="cls-1" d="M702.85,160.29l.75-.34-1-2.21a.74.74,0,0,0-.17-.24.53.53,0,0,0-.21-.11.65.65,0,0,0-.24,0,.81.81,0,0,0-.25.08l-.4.18h0l.65,1.45a1.74,1.74,0,0,1-.61.12,1.19,1.19,0,0,1-.54-.11,1.45,1.45,0,0,1-.45-.33,1.87,1.87,0,0,1-.34-.52,1.65,1.65,0,0,1-.16-.84,1.59,1.59,0,0,1,.25-.72,2.19,2.19,0,0,1,.55-.59,3.79,3.79,0,0,1,.73-.43,3.4,3.4,0,0,1,.8-.26,2.23,2.23,0,0,1,.77,0,1.58,1.58,0,0,1,.68.29,1.84,1.84,0,0,1,.51.68,2,2,0,0,1,.15.55,1.57,1.57,0,0,1,0,.49,1.38,1.38,0,0,1-.19.43,2.11,2.11,0,0,1-.31.36l-.08,0,.19.43a1.48,1.48,0,0,0,.14.25.75.75,0,0,0,.19.17.48.48,0,0,0,.24.07.49.49,0,0,0,.28-.06,1.47,1.47,0,0,0,.32-.24,1.46,1.46,0,0,0,.27-.38,2.63,2.63,0,0,0,.18-.54,2.93,2.93,0,0,0,.06-1,3.55,3.55,0,0,0-.3-1,3.47,3.47,0,0,0-.81-1.17,3,3,0,0,0-1.08-.64,3.05,3.05,0,0,0-1.25-.11,4.56,4.56,0,0,0-1.34.37,4.29,4.29,0,0,0-1.2.78,3,3,0,0,0-.76,1,2.82,2.82,0,0,0-.24,1.23,3.54,3.54,0,0,0,.34,1.39,3.89,3.89,0,0,0,.69,1.06,2.76,2.76,0,0,0,.91.63,2.48,2.48,0,0,0,1.09.18A3.45,3.45,0,0,0,702.85,160.29Z" transform="translate(-54.56 -64.2)"/><path class="cls-1" d="M703.12,163.31a3.08,3.08,0,0,0-.85.92,2.65,2.65,0,0,0-.38,1.19,3.44,3.44,0,0,0,.19,1.41,3.67,3.67,0,0,0,.57,1.1,2.56,2.56,0,0,0,1.66,1l.26,0c.63,0,.74-.44.34-1.42h-.09a2.1,2.1,0,0,1-.5,0,1.34,1.34,0,0,1-.44-.19,1.39,1.39,0,0,1-.38-.35,1.76,1.76,0,0,1-.27-.53,1.71,1.71,0,0,1-.1-.57,1.59,1.59,0,0,1,.1-.5,1.45,1.45,0,0,1,.26-.43,2.53,2.53,0,0,1,.37-.36,3.58,3.58,0,0,1,.46-.29,5.49,5.49,0,0,1,.51-.21l.42-.12a3.47,3.47,0,0,1,.45-.06,2.14,2.14,0,0,1,.44,0,1.34,1.34,0,0,1,.44.1,1.7,1.7,0,0,1,.58.35,1.76,1.76,0,0,1,.46,1.23,1.5,1.5,0,0,1-.4,1,1.72,1.72,0,0,1-.4.31l-.08,0c.32,1,.7,1.31,1.16.94a3.83,3.83,0,0,0,.29-.28,2.56,2.56,0,0,0,.51-.87,2.66,2.66,0,0,0,.16-1,3.38,3.38,0,0,0-.18-1.07,3.46,3.46,0,0,0-.7-1.24,2.81,2.81,0,0,0-1-.71,3,3,0,0,0-1.23-.23,4.21,4.21,0,0,0-1.37.24A4.14,4.14,0,0,0,703.12,163.31Z" transform="translate(-54.56 -64.2)"/><path class="cls-1" d="M706.56,169.37a4.38,4.38,0,0,0-1.29.53,3.23,3.23,0,0,0-.92.88,2.87,2.87,0,0,0-.46,1.17,3.55,3.55,0,0,0,.09,1.43,3.59,3.59,0,0,0,.59,1.31,2.85,2.85,0,0,0,1,.81,3,3,0,0,0,1.22.35,4.48,4.48,0,0,0,1.39-.13,4.39,4.39,0,0,0,1.29-.54,3.07,3.07,0,0,0,.92-.87,2.74,2.74,0,0,0,.46-1.17,3.36,3.36,0,0,0-.08-1.43,3.76,3.76,0,0,0-.59-1.31,3,3,0,0,0-.95-.82,3.12,3.12,0,0,0-1.23-.34A4.28,4.28,0,0,0,706.56,169.37Zm2.11,1.52a1.67,1.67,0,0,1,.55.43,1.6,1.6,0,0,1,.33.68,1.65,1.65,0,0,1,0,.76,1.8,1.8,0,0,1-.29.63,1.88,1.88,0,0,1-.31.32,1.92,1.92,0,0,1-.38.25,2.09,2.09,0,0,1-.4.19l-.42.13-.43.08a2.16,2.16,0,0,1-.44,0,2.12,2.12,0,0,1-.44,0,1.69,1.69,0,0,1-.43-.15,1.83,1.83,0,0,1-.56-.42,1.73,1.73,0,0,1-.33-.68,1.6,1.6,0,0,1,.27-1.39,1.93,1.93,0,0,1,.31-.33,2.48,2.48,0,0,1,.78-.43l.41-.13.43-.08.45,0a2.12,2.12,0,0,1,.44.05A2.16,2.16,0,0,1,708.67,170.89Z" transform="translate(-54.56 -64.2)"/><path class="cls-1" d="M705.15,177.32l-.1,0,.08.52a1.57,1.57,0,0,0,.08.31.72.72,0,0,0,.14.24.51.51,0,0,0,.21.15.68.68,0,0,0,.29,0l3.47-.55-3.75,2.3.16,1,4.24,1-3.44.54a.67.67,0,0,0-.27.11.65.65,0,0,0-.16.21,1.06,1.06,0,0,0-.06.28c0,.1,0,.2,0,.31l.08.52,1-.15h0l5.06-.79a.55.55,0,0,0,.27-.11.65.65,0,0,0,.16-.21,1.15,1.15,0,0,0,.06-.28,1.77,1.77,0,0,0,0-.32l-.12-.76-5-1.19,4.36-2.64-.12-.77a1.41,1.41,0,0,0-.08-.31.86.86,0,0,0-.14-.25.51.51,0,0,0-.21-.15.56.56,0,0,0-.29,0l-3,.46Z" transform="translate(-54.56 -64.2)"/><path class="cls-1" d="M712.33,184.92l-3,.23-3,.23h-.11l0,.56a1.86,1.86,0,0,0,.06.34,1.11,1.11,0,0,0,.12.27.57.57,0,0,0,.2.18.54.54,0,0,0,.29,0l1.55-.12.09,1.2a2.65,2.65,0,0,0,.23.95,2.61,2.61,0,0,0,.52.73,2.16,2.16,0,0,0,.76.45,2.31,2.31,0,0,0,1,.11,2.45,2.45,0,0,0,.92-.25,2,2,0,0,0,.68-.53,2.24,2.24,0,0,0,.41-.78,2.57,2.57,0,0,0,.09-1l-.14-1.82c0-.12,0-.23,0-.34a.84.84,0,0,0-.13-.27.49.49,0,0,0-.2-.18A.54.54,0,0,0,712.33,184.92Zm-.42,3a1.22,1.22,0,0,1-.21.39.89.89,0,0,1-.34.23,1.23,1.23,0,0,1-.44.1,1.65,1.65,0,0,1-.45,0,1,1,0,0,1-.37-.18,1.06,1.06,0,0,1-.27-.35,1.65,1.65,0,0,1-.13-.55l-.07-.93,2.25-.17.07.94A1.9,1.9,0,0,1,711.91,187.91Z" transform="translate(-54.56 -64.2)"/><path class="cls-1" d="M706.64,192v.27l1.69.55V195l-1.68.57v.21c0,.91.33,1.23,1,1l5.71-2.1v-1.54l-5.73-2C707,190.88,706.65,191.17,706.64,192Zm5.1,1.9-2.28.77v-1.51Z" transform="translate(-54.56 -64.2)"/><path class="cls-1" d="M713.21,198.42a.52.52,0,0,0-.18-.21.46.46,0,0,0-.27-.08l-6.12-.43,0,.55a1.19,1.19,0,0,0,0,.33.77.77,0,0,0,.08.28.48.48,0,0,0,.17.2.62.62,0,0,0,.28.09l.64,0h0l3.07.21-4.53,2.79,0,.54a1.6,1.6,0,0,0,0,.31,1.07,1.07,0,0,0,.09.27.48.48,0,0,0,.17.2.62.62,0,0,0,.28.09l6.12.43,0-.53a1.71,1.71,0,0,0,0-.32,1,1,0,0,0-.09-.27.55.55,0,0,0-.17-.2.51.51,0,0,0-.28-.08l-3-.21-.7-.05,4.53-3,0-.29a3,3,0,0,0,0-.43A.77.77,0,0,0,713.21,198.42Z" transform="translate(-54.56 -64.2)"/><path class="cls-1" d="M712.09,205.29l-2.23.94-.38.16-.33.17-.32.13-.37.1h-.08l-2.54-.37-.08.56a1.32,1.32,0,0,0,0,.34.68.68,0,0,0,.06.29.57.57,0,0,0,.15.22.55.55,0,0,0,.27.11l2,.3a2,2,0,0,1,.32.2,3.2,3.2,0,0,1,.27.22l.27.25a3,3,0,0,0,.32.27l1.88,1.47c.43.34.69.2.78-.43l.09-.6-2.45-1.89,2.88-1.12.08-.49C712.78,205.37,712.58,205.1,712.09,205.29Z" transform="translate(-54.56 -64.2)"/><path class="cls-1" d="M711,214.22a.51.51,0,0,0-.25-.14l-1-.24h0l-4.94-1.17-1,4.33.45.1a1,1,0,0,0,.28,0,.66.66,0,0,0,.25,0,.5.5,0,0,0,.2-.15.64.64,0,0,0,.13-.26l.55-2.32,5.38,1.27.13-.55a1.4,1.4,0,0,0,0-.34.73.73,0,0,0,0-.3A.49.49,0,0,0,711,214.22Z" transform="translate(-54.56 -64.2)"/><path class="cls-1" d="M709.43,219.16a.65.65,0,0,0-.28,0,.51.51,0,0,0-.23.12.61.61,0,0,0-.14.25l-.4,1.32-5.3-1.61-.16.54a2.09,2.09,0,0,0-.08.34,1,1,0,0,0,0,.3.55.55,0,0,0,.12.24.48.48,0,0,0,.25.15l4.72,1.43-.4,1.31a.58.58,0,0,0,0,.29.66.66,0,0,0,.11.24,1.06,1.06,0,0,0,.23.17,1.34,1.34,0,0,0,.3.12l.35.11,1.57-5.17-.35-.11A1.8,1.8,0,0,0,709.43,219.16Z" transform="translate(-54.56 -64.2)"/><path class="cls-1" d="M707.58,225.42l-1.66-.64h0l-4.07-1.56-.91,2.38a3.87,3.87,0,0,0-.28,1.4,2.72,2.72,0,0,0,1,2.17,4.57,4.57,0,0,0,1.23.71,4.32,4.32,0,0,0,1.39.29,2.69,2.69,0,0,0,1.21-.21,2.86,2.86,0,0,0,1-.72,4.07,4.07,0,0,0,.72-1.23l.59-1.54a2.07,2.07,0,0,0,.1-.33,1,1,0,0,0,0-.3.51.51,0,0,0-.1-.25A.61.61,0,0,0,707.58,225.42Zm-1.43,2.05a2.33,2.33,0,0,1-.32.59,1.84,1.84,0,0,1-.4.39,1.63,1.63,0,0,1-.47.2,1.67,1.67,0,0,1-.5,0,2.22,2.22,0,0,1-.51-.06,4.13,4.13,0,0,1-.5-.15,4.63,4.63,0,0,1-.7-.36,2,2,0,0,1-.55-.53,1.6,1.6,0,0,1-.26-.73,2,2,0,0,1,.16-1l.35-.91,4,1.56Z" transform="translate(-54.56 -64.2)"/><path class="cls-1" d="M700.23,229.89a.85.85,0,0,0-.21-.14.61.61,0,0,0-.25-.06.9.9,0,0,0-.28,0,.69.69,0,0,0-.27.16.78.78,0,0,0-.22.3.72.72,0,0,0-.08.36.73.73,0,0,0,.07.3.66.66,0,0,0,.17.23.64.64,0,0,0,.21.14.7.7,0,0,0,.24.06.67.67,0,0,0,.28,0,.85.85,0,0,0,.28-.15.81.81,0,0,0,.21-.29.73.73,0,0,0,.08-.37.6.6,0,0,0-.07-.3A.79.79,0,0,0,700.23,229.89Z" transform="translate(-54.56 -64.2)"/><path class="cls-1" d="M579,282.67a272.74,272.74,0,0,0-49.64-25.9,423.38,423.38,0,0,1,70.34,19Q589.21,279,579,282.67Zm-35.89,12.8c5.81-2.45,20.07-6.9,26-9.17-22.87-16.67-48.38-29.31-67.32-34.23C521.52,265.8,536.93,280.15,543.15,295.47ZM621.49,64.2q-7,0-13.77.67l1.49,0h.53c1.61,0,3.23-.09,4.85-.09A133.45,133.45,0,0,1,740.34,242.63c-6.54,2.56-22.06,11.09-37.82,22-23.81,17.94-46,42-58.54,63.56a133.67,133.67,0,0,1-15.61,2.55c15.15-30.19,39-51.38,72.35-71.38q-3.21.63-6.66,1.61a63.18,63.18,0,0,0-7.12,2.28,195.22,195.22,0,0,0-25.58,11.48c-2.8,1.75-7.08,4.46-7.76,4.86C631.12,293,608.38,310.33,592.05,327a133.12,133.12,0,0,1-16-4.31c25.08-21.75,54.54-40,84.79-54.26.5-.23,2.32-1.13,3.88-1.89-.83.05-2.3.42-4.45.75-6,1-10.82,2.13-25.19,5.1-33.26,7.91-64.55,20-94.83,34.37-10.12-22.78-27.87-42.13-49.53-59.12a134.07,134.07,0,0,1-7.9-70.13q.44-3.85,1.11-7.63A142.37,142.37,0,1,0,621.49,64.2Z" transform="translate(-54.56 -64.2)"/><path class="cls-1" d="M693.55,210.84l-1.82,1.75-.47.45-.25.25-.28.24-1.24,1.1-.7.61-.36.33-.4.31-1.69,1.38a80.8,80.8,0,0,1-9.16,6.26,75.77,75.77,0,0,1-13.08,6c-.63.21-1.25.45-1.9.65l-2,.59-1,.3-1,.26c-.68.18-1.36.36-2.06.53a87.05,87.05,0,0,1-8.69,1.59,102.78,102.78,0,0,1-19,.67l-2.49-.18-1.25-.09-1.25-.12-2.52-.26-2.52-.33-1.27-.16-1.27-.2-2.55-.41-2.54-.47-1.28-.24-1.27-.27-2.56-.53-2.55-.61-1.28-.3-1.27-.33L598,229c-.85-.23-1.69-.48-2.54-.72s-1.7-.47-2.54-.74c-1.68-.52-3.37-1-5-1.58l-2.52-.84-2.49-.85-5-1.71-9.86-3.46-4.86-1.71-4.82-1.66c-3.2-1.07-6.36-2.14-9.49-3.08-.78-.24-1.56-.49-2.33-.71l-2.33-.65-2.3-.64c-.38-.11-.77-.2-1.15-.29l-1.14-.27-2.28-.55-1.12-.27-1.13-.22-4.44-.87-4.35-.67-1.07-.16c-.35-.06-.71-.09-1.06-.13l-2.11-.23-2.07-.23-1-.11-1-.07-4-.29-1-.06q-.48,0-1-.06l-1.89-.07-3.66-.13c-1.19-.06-2.35,0-3.48-.05l-3.28,0h-2.33l-.76,0-2.87,0-5.06.1-9.6.37s1.95-4,3.19-4.63c3.73-.13.16,0,6.33-.12h8.78l.78,0,1.58.05,3.34.08c1.14,0,2.32.05,3.53.13l3.71.21,1.93.11c.32,0,.65,0,1,.08l1,.09,4.06.37,1,.09,1,.14,2.12.27,2.16.29c.36.05.72.08,1.09.15l1.09.19,4.45.77,4.54,1c.38.09.77.16,1.15.26l1.15.29,2.31.61,1.17.3c.38.1.78.2,1.16.32l2.33.7,2.36.71c.78.24,1.56.51,2.35.77,3.16,1,6.32,2.16,9.52,3.3l4.8,1.77,4.84,1.81,9.76,3.65L583.7,222l2.46.91,2.47.87c1.64.59,3.31,1.12,5,1.67.83.28,1.66.53,2.5.79l2.49.75,2.51.71,1.25.35,1.26.33,2.51.64,2.51.59,1.26.29,1.25.26,2.51.52,2.51.45,1.24.22,1.25.19,2.49.37,2.48.31,1.24.15,1.23.11,2.46.22a101.39,101.39,0,0,0,18.83-.27c3-.31,5.85-.83,8.62-1.4l2-.48,1-.24,1-.27,2-.55c.64-.19,1.26-.41,1.89-.61a75,75,0,0,0,13.1-5.7,78.85,78.85,0,0,0,9.25-6.05l1.72-1.33.4-.31.37-.32.7-.6,1.27-1.07.28-.24.26-.24.48-.44Z" transform="translate(-54.56 -64.2)"/><path class="cls-1" d="M614.9,241.8a12.74,12.74,0,0,0-1.24-2.85,16.72,16.72,0,0,0-1.88-2.67,15.84,15.84,0,0,0-1.35-1.38,16.27,16.27,0,0,0-1.65-1.34c-1.22-.83-2.44-1.62-3.62-2.27a28.6,28.6,0,0,0-3.36-1.6,11.78,11.78,0,0,0-2.78-.77,2.88,2.88,0,0,0-1.88.25c-.88.55-.76,1.79.19,3.36a14.38,14.38,0,0,0,2,2.56,28,28,0,0,0,3.16,2.73,18.54,18.54,0,0,0,2,1.2,17.52,17.52,0,0,0,2.07,1c.7.27,1.4.51,2.08.71l1,.29,1,.22c1.24.26,2.32.43,3.09.51S614.9,241.8,614.9,241.8Z" transform="translate(-54.56 -64.2)"/><path class="cls-1" d="M615.79,241.66l.38.23c.25.14.62.36,1.09.6s1,.54,1.7.85,1.39.67,2.21,1,1.71.66,2.65,1,1.94.59,3,.85l.78.19.79.16c.54.1,1.07.2,1.61.28s1.08.15,1.62.19,1.09.07,1.63.08a12.52,12.52,0,0,1-1.32.13c-.21,0-.46,0-.72,0h-.87c-.63,0-1.36-.08-2.18-.16-.41,0-.84-.11-1.29-.19l-1.42-.27c-.49-.11-1-.22-1.53-.36s-1.08-.31-1.64-.5-1.15-.38-1.74-.6-1.21-.49-1.83-.77-1.26-.57-1.91-.9-1.3-.7-2-1.09Z" transform="translate(-54.56 -64.2)"/><path class="cls-1" d="M618,222.22a11.51,11.51,0,0,1-1.9,2.35,13.19,13.19,0,0,1-2.51,1.86,10.9,10.9,0,0,1-1.68.81,13.26,13.26,0,0,1-2,.58,24.49,24.49,0,0,1-4.14.54,19.67,19.67,0,0,1-3.67-.14,10.2,10.2,0,0,1-2.77-.72,2.82,2.82,0,0,1-1.46-1.18c-.45-.91.33-1.91,1.89-2.78a16,16,0,0,1,2.9-1.21,28.73,28.73,0,0,1,3.77-1,14.81,14.81,0,0,1,2.08-.27c.68,0,1.37,0,2,0s1.32.06,1.94.12l.91.11.85.12c1.1.16,2,.38,2.68.53S618,222.22,618,222.22Z" transform="translate(-54.56 -64.2)"/><path class="cls-1" d="M618.74,222.61l.38-.1c.25-.07.61-.15,1.06-.28l1.6-.41c.61-.15,1.3-.28,2-.45s1.51-.32,2.32-.46,1.65-.31,2.5-.42l.65-.07.64-.09q.65-.08,1.29-.12l1.29-.06c.42,0,.85,0,1.27,0a8,8,0,0,0-1-.19l-.56-.06-.68-.06c-.5,0-1.07,0-1.72,0a47.07,47.07,0,0,0-11.65,1.86Z" transform="translate(-54.56 -64.2)"/><path class="cls-1" d="M631.77,242.49s-.11-.26-.34-.7a13.51,13.51,0,0,0-1.1-1.72,14.82,14.82,0,0,0-2-2.17,14.26,14.26,0,0,0-3-2.11,37.41,37.41,0,0,0-3.48-1.65,24.45,24.45,0,0,0-3.17-1.09,10.35,10.35,0,0,0-2.56-.42,2.68,2.68,0,0,0-1.66.41,1.16,1.16,0,0,0-.41,1.21,3.29,3.29,0,0,0,.3.84,6.08,6.08,0,0,0,.6.94,12.73,12.73,0,0,0,2.08,2.09,21.82,21.82,0,0,0,3.13,2.12,12.4,12.4,0,0,0,1.88.88,20.44,20.44,0,0,0,2,.65,27.76,27.76,0,0,0,3.77.66,28.4,28.4,0,0,0,2.85.1l.83,0Z" transform="translate(-54.56 -64.2)"/><path class="cls-1" d="M632.56,242.26s.51.22,1.42.57,2.19.76,3.74,1.18c.78.22,1.62.39,2.51.56s1.82.32,2.78.4,2,.17,2.94.17a29,29,0,0,0,3-.17,11,11,0,0,1-1.17.28,19.1,19.1,0,0,1-3.42.34c-.74,0-1.58,0-2.49-.06s-1.91-.2-3-.38-2.19-.47-3.38-.8c-.6-.16-1.21-.38-1.83-.6s-1.25-.47-1.9-.74Z" transform="translate(-54.56 -64.2)"/><path class="cls-1" d="M632.36,224.65a6.27,6.27,0,0,1-.33.68,12,12,0,0,1-3.11,3.57,11.32,11.32,0,0,1-3.1,1.64,24.1,24.1,0,0,1-3.63.91,19.6,19.6,0,0,1-3.29.25,9,9,0,0,1-2.55-.38,2.43,2.43,0,0,1-1.42-.91,1.21,1.21,0,0,1,0-1.28,3.15,3.15,0,0,1,.54-.68,6.14,6.14,0,0,1,.84-.71,14.2,14.2,0,0,1,2.46-1.37,28.18,28.18,0,0,1,3.26-1.25c.6-.17,1.2-.33,1.81-.45s1.21-.19,1.8-.24a23.5,23.5,0,0,1,3.31-.08,22.2,22.2,0,0,1,2.42.17l.7.09Z" transform="translate(-54.56 -64.2)"/><path class="cls-1" d="M633,224.91l1.23-.51c.77-.29,1.85-.75,3.1-1.19.63-.21,1.29-.47,2-.7s1.42-.43,2.15-.66,1.49-.4,2.24-.56a17.21,17.21,0,0,1,2.24-.39,6.63,6.63,0,0,0-.92-.05,19.81,19.81,0,0,0-2.63.22c-.57.08-1.2.21-1.9.37a22.35,22.35,0,0,0-2.3.59c-.83.24-1.74.51-2.71.88-.48.18-1,.35-1.51.55s-1.06.42-1.62.66Z" transform="translate(-54.56 -64.2)"/><path class="cls-1" d="M646.86,241a10.44,10.44,0,0,0-1.58-1.94,13.5,13.5,0,0,0-2-1.68,14.19,14.19,0,0,0-2.89-1.5c-1.12-.42-2.22-.74-3.27-1a25.35,25.35,0,0,0-2.92-.6,9.22,9.22,0,0,0-2.31-.07,2.36,2.36,0,0,0-1.42.53c-.58.58-.27,1.53.77,2.6a11,11,0,0,0,2.08,1.6c.43.27.89.53,1.4.79s1,.49,1.61.72a14,14,0,0,0,1.77.57,14.61,14.61,0,0,0,1.83.32c.6.08,1.2.12,1.77.15s1.13,0,1.65,0a19.71,19.71,0,0,0,2.54-.25C646.49,241.06,646.86,241,646.86,241Z" transform="translate(-54.56 -64.2)"/><path class="cls-1" d="M647.53,240.68l.34.1c.23.05.56.15,1,.23.84.17,2,.4,3.47.57.71.07,1.47.13,2.28.17.4,0,.82,0,1.24,0s.84,0,1.27,0,.87,0,1.3-.08l.66-.06.65-.09c.88-.13,1.74-.31,2.59-.52a10.25,10.25,0,0,1-1,.39c-.34.11-.75.24-1.24.37-.25.07-.52.14-.81.2s-.59.12-.92.17c-.66.11-1.4.2-2.21.27s-1.71.06-2.67,0c-.49,0-1,0-1.5-.08s-1.05-.12-1.6-.2-1.11-.17-1.69-.28-1.17-.27-1.77-.43Z" transform="translate(-54.56 -64.2)"/><path class="cls-1" d="M645.18,225.2a8.91,8.91,0,0,1-1,2.21,10.06,10.06,0,0,1-1.53,2,9.5,9.5,0,0,1-2.52,1.82,19.29,19.29,0,0,1-3.09,1.23,16,16,0,0,1-2.87.6,9,9,0,0,1-2.29,0,2.32,2.32,0,0,1-1.35-.66c-.51-.64-.09-1.55,1-2.51a14.42,14.42,0,0,1,2-1.5c.4-.24.83-.49,1.28-.73s.94-.5,1.44-.73a11,11,0,0,1,1.53-.6c.51-.16,1-.32,1.54-.44s1-.21,1.5-.28.94-.14,1.38-.19c.86-.09,1.62-.1,2.14-.13S645.18,225.2,645.18,225.2Z" transform="translate(-54.56 -64.2)"/><path class="cls-1" d="M645.79,225.36l.26-.16.75-.44c.63-.38,1.52-.89,2.56-1.43a35.72,35.72,0,0,1,7.26-3.14,7,7,0,0,0-.82.07c-.26,0-.59.1-1,.19l-.61.16c-.22.06-.45.11-.7.19a15.8,15.8,0,0,0-1.62.56c-.59.23-1.25.48-1.94.8-.35.16-.71.35-1.09.53s-.76.37-1.16.59-.82.44-1.25.69-.88.49-1.34.76Z" transform="translate(-54.56 -64.2)"/><path class="cls-1" d="M659.47,237.75a8.73,8.73,0,0,0-1.59-1.48,11.65,11.65,0,0,0-2-1.22,13.41,13.41,0,0,0-2.69-.94c-.51-.11-1-.21-1.51-.29l-1.45-.21a17.49,17.49,0,0,0-2.6-.17c-1.57,0-2.75.27-3.19.85a.9.9,0,0,0-.06,1,3.27,3.27,0,0,0,1,1.15,13.2,13.2,0,0,0,4.8,2.1,10.71,10.71,0,0,0,1.6.28,14.76,14.76,0,0,0,1.62.05c.54,0,1.06,0,1.56-.08s1-.14,1.43-.22l1.22-.26c.37-.09.69-.17.95-.26C659.17,237.87,659.47,237.75,659.47,237.75Z" transform="translate(-54.56 -64.2)"/><path class="cls-1" d="M660,237.41s.43.06,1.19.13,1.8.09,3.06.07c.63,0,1.29-.06,2-.13s1.43-.15,2.17-.28,1.48-.32,2.22-.52c.37-.1.74-.21,1.1-.33l1.06-.42s-.27.18-.8.46a16.27,16.27,0,0,1-2.47,1c-.28.09-.57.18-.88.26s-.65.15-1,.23c-.7.14-1.46.26-2.29.36a26.42,26.42,0,0,1-5.8-.07Z" transform="translate(-54.56 -64.2)"/><path class="cls-1" d="M656.1,224.28a8.3,8.3,0,0,1-.57,2,9.39,9.39,0,0,1-1.09,1.88,8.22,8.22,0,0,1-2,1.88q-.63.42-1.26.78a11,11,0,0,1-1.27.66,16.16,16.16,0,0,1-2.41.87c-1.51.34-2.72.33-3.24-.17a.93.93,0,0,1-.23-1,3.76,3.76,0,0,1,.76-1.32,16.87,16.87,0,0,1,3.73-3.13,10.22,10.22,0,0,1,1.25-.7,11.13,11.13,0,0,1,1.28-.57c.43-.17.85-.3,1.26-.42s.8-.25,1.17-.34l1-.23.82-.15C655.82,224.31,656.1,224.28,656.1,224.28Z" transform="translate(-54.56 -64.2)"/><path class="cls-1" d="M656.65,224.34s.29-.25.8-.63,1.21-1,2-1.56c.43-.29.87-.63,1.34-1s1-.65,1.47-1,1-.64,1.55-.92l.81-.4.8-.38a5.64,5.64,0,0,0-.7.18,13.46,13.46,0,0,0-1.93.73c-.2.09-.42.2-.64.32l-.71.36a17.94,17.94,0,0,0-1.59,1,41.13,41.13,0,0,0-3.9,2.81Z" transform="translate(-54.56 -64.2)"/><path class="cls-1" d="M670.38,233.2s-.14-.13-.4-.33a8.89,8.89,0,0,0-1.14-.76,9.62,9.62,0,0,0-1.81-.79,10.31,10.31,0,0,0-1.13-.29,9.93,9.93,0,0,0-1.27-.19,21.94,21.94,0,0,0-4.82.13c-1.34.18-2.3.56-2.6,1.11s.13,1.17,1.1,1.71a8.8,8.8,0,0,0,1.84.73c.18,0,.38.11.57.15l.61.12q.63.11,1.32.18a9.32,9.32,0,0,0,1.4,0,12.39,12.39,0,0,0,1.38-.15c.45-.08.89-.17,1.31-.27l.62-.16.57-.19c.73-.26,1.34-.52,1.77-.71l.5-.23Z" transform="translate(-54.56 -64.2)"/><path class="cls-1" d="M670.79,232.84s.38,0,1,0l1.15-.09.7-.07.75-.12c.53-.09,1.09-.2,1.67-.33l.9-.21c.29-.08.6-.17.9-.27.6-.2,1.22-.42,1.82-.66a8.82,8.82,0,0,0,.88-.41c.29-.14.58-.3.85-.46a5.63,5.63,0,0,1-.62.48,9.3,9.3,0,0,1-.81.5c-.33.18-.72.38-1.17.58s-1,.42-1.52.63-1.21.37-1.9.54a22.69,22.69,0,0,1-4.9.62Z" transform="translate(-54.56 -64.2)"/><path class="cls-1" d="M665.89,222.13a3.74,3.74,0,0,1,0,.5,7.81,7.81,0,0,1-.23,1.28,7.39,7.39,0,0,1-.71,1.75,6.53,6.53,0,0,1-.61.94,9.71,9.71,0,0,1-.83.9,14.19,14.19,0,0,1-3.92,2.59c-1.24.49-2.28.61-2.78.26s-.39-1.1.16-2a9.6,9.6,0,0,1,1.14-1.5c.11-.13.24-.26.37-.39s.26-.28.39-.41c.28-.28.57-.56.89-.83a7.72,7.72,0,0,1,1-.75,11.57,11.57,0,0,1,1-.65,11.06,11.06,0,0,1,1-.52l1-.43c.61-.25,1.14-.43,1.53-.55l.46-.13Z" transform="translate(-54.56 -64.2)"/><path class="cls-1" d="M666.36,222.11s.23-.26.61-.66c.2-.2.43-.44.7-.7l.43-.41.47-.46c.32-.31.67-.64,1-1l1.16-1c.4-.33.82-.65,1.26-.95l.65-.44c.21-.15.44-.29.66-.42a4.29,4.29,0,0,0-.59.23c-.19.08-.42.21-.69.34a8.94,8.94,0,0,0-.91.51,12.76,12.76,0,0,0-1.1.75c-.39.29-.83.6-1.28,1a35,35,0,0,0-3,2.89Z" transform="translate(-54.56 -64.2)"/><path class="cls-1" d="M679.49,228.05a6.85,6.85,0,0,0-1.46-.78,8.51,8.51,0,0,0-3.84-.62,19.69,19.69,0,0,0-2.28.24l-1,.2-.92.23c-1.14.34-1.94.81-2.14,1.31s.26,1,1.18,1.37a10.89,10.89,0,0,0,4,.51,10.34,10.34,0,0,0,2.41-.44,5.58,5.58,0,0,0,.58-.18l.54-.21c.35-.15.68-.3,1-.45a14.77,14.77,0,0,0,1.48-.81Z" transform="translate(-54.56 -64.2)"/><path class="cls-1" d="M679.82,227.69s.32,0,.88-.14l1-.2c.38-.08.79-.2,1.24-.33a18.94,18.94,0,0,0,5.87-2.74,5,5,0,0,1-.49.48,11.53,11.53,0,0,1-1.61,1.13c-.37.23-.79.46-1.26.7s-1,.45-1.6.67-1.22.43-1.93.61-1.46.32-2.28.45Z" transform="translate(-54.56 -64.2)"/><path class="cls-1" d="M674.29,218.82a6,6,0,0,1,0,1.62,6.94,6.94,0,0,1-1.48,3.41,14.58,14.58,0,0,1-1.56,1.58,7.64,7.64,0,0,1-.79.64c-.27.19-.54.36-.79.51-1,.59-1.91.84-2.4.58s-.49-.92-.11-1.78a12.06,12.06,0,0,1,2.07-3.1,9,9,0,0,1,1.61-1.48c.14-.11.28-.2.42-.3l.42-.29c.28-.18.55-.35.8-.49.52-.29,1-.5,1.3-.66S674.29,218.82,674.29,218.82Z" transform="translate(-54.56 -64.2)"/><path class="cls-1" d="M674.71,218.75s.17-.25.47-.64c.15-.2.33-.44.54-.7s.44-.56.7-.87a23.75,23.75,0,0,1,3.89-3.87,4.68,4.68,0,0,0-.51.27,10.9,10.9,0,0,0-1.35.92,11.56,11.56,0,0,0-.9.79c-.32.3-.67.62-1,1s-.73.82-1.13,1.3-.82,1-1.25,1.59Z" transform="translate(-54.56 -64.2)"/><path class="cls-1" d="M685.16,218.57s-.2,0-.55.06-.82.12-1.4.24a12.71,12.71,0,0,0-1.93.54l-.52.21-.53.22a11.12,11.12,0,0,0-1.08.56c-.35.21-.7.43-1,.65s-.64.42-.94.63a13.94,13.94,0,0,0-1.51,1.25c-.84.77-1.27,1.47-1.07,1.91s1,.53,2.15.31a12.05,12.05,0,0,0,1.92-.62c.35-.14.71-.3,1.08-.47s.73-.4,1.1-.62a9.73,9.73,0,0,0,1-.72,7.59,7.59,0,0,0,.89-.79,13.65,13.65,0,0,0,1.35-1.59,9.5,9.5,0,0,0,.76-1.26C685.08,218.76,685.16,218.57,685.16,218.57Z" transform="translate(-54.56 -64.2)"/><path class="cls-1" d="M693.87,211.17l-1.29,1.16c-.39.34-.83.76-1.33,1.18l-1.57,1.3c-.27.22-.53.45-.81.66l-.79.61-1.41,1.08-1,.74-.39.27.17.23.17.23.38-.3c.23-.19.58-.45,1-.79l1.36-1.16.76-.65c.26-.22.51-.47.77-.7l1.51-1.39c.47-.44.9-.88,1.27-1.25Z" transform="translate(-54.56 -64.2)"/><path class="cls-1" d="M598.16,221.17a10.66,10.66,0,0,0-1.82-1.83,13.21,13.21,0,0,0-2.26-1.5,14.19,14.19,0,0,0-1.46-.67,12.73,12.73,0,0,0-1.68-.53c-1.2-.28-2.38-.52-3.49-.67a25,25,0,0,0-3.08-.23A10.72,10.72,0,0,0,582,216a2.42,2.42,0,0,0-1.38.76c-.52.69-.05,1.62,1.16,2.55a12.05,12.05,0,0,0,2.34,1.37,22,22,0,0,0,3.27,1.16,12.84,12.84,0,0,0,1.87.34,13.28,13.28,0,0,0,1.88.12c.63,0,1.24,0,1.82-.07l.86-.08.81-.12a23.09,23.09,0,0,0,2.55-.54C597.8,221.3,598.16,221.17,598.16,221.17Z" transform="translate(-54.56 -64.2)"/><path class="cls-1" d="M598.81,220.8l.36.06c.24,0,.58.09,1,.14s1,.1,1.57.14,1.28.09,2,.1,1.52,0,2.34,0,1.68-.12,2.56-.23l.66-.08.66-.12,1.33-.27c.44-.11.88-.21,1.31-.34s.86-.28,1.28-.43a9.33,9.33,0,0,1-1,.5c-.16.07-.34.16-.55.24l-.68.25c-.49.17-1.07.36-1.73.53a9.72,9.72,0,0,1-1.06.25c-.37.07-.76.15-1.17.21s-.85.14-1.3.19L605,222q-.74,0-1.53.06c-.53,0-1.08,0-1.64,0s-1.15-.07-1.75-.12-1.22-.15-1.85-.25Z" transform="translate(-54.56 -64.2)"/><path class="cls-1" d="M594.7,205.07a9.24,9.24,0,0,1-.78,2.39,10.54,10.54,0,0,1-1.37,2.2,10.1,10.1,0,0,1-1.06,1.13,11.29,11.29,0,0,1-1.34,1,20.74,20.74,0,0,1-3,1.66,16.53,16.53,0,0,1-2.88,1,8.17,8.17,0,0,1-2.36.28,2.34,2.34,0,0,1-1.49-.47c-.62-.58-.32-1.58.63-2.73a13.58,13.58,0,0,1,1.87-1.81,23.36,23.36,0,0,1,2.64-1.87,11.91,11.91,0,0,1,1.52-.84c.52-.24,1.05-.44,1.57-.64s1-.35,1.53-.48l.74-.19.69-.17c.9-.2,1.69-.31,2.24-.39S594.7,205.07,594.7,205.07Z" transform="translate(-54.56 -64.2)"/><path class="cls-1" d="M595.35,205.17l.26-.2.74-.53c.31-.23.69-.51,1.12-.8l1.43-1c.51-.34,1.07-.7,1.66-1s1.18-.73,1.81-1.07l.47-.26.48-.26q.46-.25,1-.48c.32-.16.65-.29,1-.44s.65-.27,1-.39a5.1,5.1,0,0,0-.84.16l-.45.12-.55.16c-.39.12-.84.28-1.34.49a38.27,38.27,0,0,0-8.46,4.95Z" transform="translate(-54.56 -64.2)"/><path class="cls-1" d="M611.42,216.62a6,6,0,0,0-.47-.43,12.25,12.25,0,0,0-1.37-1,12.77,12.77,0,0,0-2.19-1.08,12.25,12.25,0,0,0-2.95-.73,27.76,27.76,0,0,0-3.19-.22,18.84,18.84,0,0,0-2.78.1,9.11,9.11,0,0,0-2.12.45,2.28,2.28,0,0,0-1.16.81,1,1,0,0,0,0,1.07,3.34,3.34,0,0,0,.48.56,5.55,5.55,0,0,0,.76.54,10.93,10.93,0,0,0,2.23,1,19.51,19.51,0,0,0,3.06.7,11,11,0,0,0,1.72.11c.58,0,1.16,0,1.72-.09a21.33,21.33,0,0,0,3.11-.63c.93-.27,1.7-.56,2.24-.77l.64-.27Z" transform="translate(-54.56 -64.2)"/><path class="cls-1" d="M612,216.2s.47,0,1.27,0,1.93-.07,3.25-.21c.67-.07,1.37-.19,2.11-.33a22.49,22.49,0,0,0,2.28-.52c.77-.22,1.56-.46,2.32-.76a21.61,21.61,0,0,0,2.24-1,7.79,7.79,0,0,1-.82.57,16.06,16.06,0,0,1-2.54,1.29c-.58.23-1.22.48-2,.71s-1.53.42-2.41.6-1.84.29-2.86.39c-.51.06-1.05.07-1.59.09s-1.12,0-1.7,0Z" transform="translate(-54.56 -64.2)"/><path class="cls-1" d="M606.51,202.64a4.53,4.53,0,0,1-.06.62,8.59,8.59,0,0,1-.36,1.58,9.55,9.55,0,0,1-1,2.13,9.43,9.43,0,0,1-1.9,2.19,19.8,19.8,0,0,1-2.54,1.81,17.11,17.11,0,0,1-2.47,1.18,8.35,8.35,0,0,1-2.08.48,2.14,2.14,0,0,1-1.38-.28,1,1,0,0,1-.35-1,2.62,2.62,0,0,1,.21-.7,5.92,5.92,0,0,1,.44-.8,11.21,11.21,0,0,1,1.49-1.8,21,21,0,0,1,2.15-1.94,13.76,13.76,0,0,1,1.26-.9c.43-.27.88-.51,1.32-.73a19.68,19.68,0,0,1,2.53-1.06,20.13,20.13,0,0,1,1.93-.6l.57-.14Z" transform="translate(-54.56 -64.2)"/><path class="cls-1" d="M607.1,202.64s.29-.29.79-.76,1.2-1.14,2-1.86c.43-.35.86-.75,1.33-1.13s1-.77,1.47-1.17,1-.75,1.56-1.11a13.34,13.34,0,0,1,1.62-1,4.1,4.1,0,0,0-.73.24,16.57,16.57,0,0,0-2,1c-.41.23-.86.52-1.36.86s-1,.7-1.6,1.15-1.19.92-1.83,1.49c-.32.29-.66.57-1,.89s-.7.64-1.06,1Z" transform="translate(-54.56 -64.2)"/><path class="cls-1" d="M622.64,210.91a8.71,8.71,0,0,0-1.8-1,11.38,11.38,0,0,0-2.07-.69,11.64,11.64,0,0,0-2.69-.28c-1,0-1.94.09-2.84.17a20.86,20.86,0,0,0-2.44.42,7.55,7.55,0,0,0-1.81.64,1.92,1.92,0,0,0-.94.84c-.28.62.25,1.26,1.38,1.77a8.67,8.67,0,0,0,2.09.62c.41.08.85.14,1.32.19s.95.06,1.47.07a11.46,11.46,0,0,0,1.54-.09,12.44,12.44,0,0,0,1.5-.3c.49-.13,1-.27,1.42-.42s.88-.34,1.27-.51a18.93,18.93,0,0,0,1.89-1Z" transform="translate(-54.56 -64.2)"/><path class="cls-1" d="M623.07,210.48l.3,0c.19,0,.48,0,.83-.11.7-.13,1.69-.31,2.85-.61.57-.16,1.18-.35,1.82-.56.31-.11.64-.21,1-.34l1-.42,1-.45.49-.24.48-.27c.63-.37,1.25-.77,1.84-1.19a7.5,7.5,0,0,1-.65.6c-.22.19-.5.42-.84.67-.18.12-.36.26-.57.39s-.42.27-.66.41c-.48.28-1,.58-1.63.88s-1.31.56-2.06.83c-.38.13-.76.27-1.18.39l-1.3.33c-.44.1-.91.2-1.39.29s-1,.15-1.5.2Z" transform="translate(-54.56 -64.2)"/><path class="cls-1" d="M616.59,199.2a7.54,7.54,0,0,1-.08,2,8.44,8.44,0,0,1-.6,2,7.71,7.71,0,0,1-1.4,2.16,14.73,14.73,0,0,1-2,1.88,12.59,12.59,0,0,1-2,1.33,7.85,7.85,0,0,1-1.78.67,1.85,1.85,0,0,1-1.25-.11c-.59-.33-.54-1.17,0-2.22a11,11,0,0,1,1.1-1.76c.23-.32.49-.64.77-1s.57-.66.89-1a9.65,9.65,0,0,1,1-.92c.35-.28.7-.56,1.06-.8a12.68,12.68,0,0,1,1.08-.67c.35-.21.69-.4,1-.56.64-.34,1.22-.57,1.62-.76S616.59,199.2,616.59,199.2Z" transform="translate(-54.56 -64.2)"/><path class="cls-1" d="M617.11,199.14l.16-.2c.1-.14.25-.32.44-.56.37-.49.91-1.15,1.55-1.89a30.54,30.54,0,0,1,4.68-4.61,5.73,5.73,0,0,0-.61.3c-.2.11-.43.26-.7.44l-.42.31-.48.35c-.34.26-.7.57-1.09.93s-.82.74-1.26,1.2l-.68.74c-.24.25-.48.52-.73.8s-.49.59-.75.92-.53.64-.81,1Z" transform="translate(-54.56 -64.2)"/><path class="cls-1" d="M631.43,204.61a7.63,7.63,0,0,0-1.68-.66,9.24,9.24,0,0,0-1.88-.36,10.66,10.66,0,0,0-2.36.09c-.43.06-.86.14-1.26.22l-1.19.28a13.5,13.5,0,0,0-2.06.66c-1.22.45-2,1-2.21,1.61a.76.76,0,0,0,.25.78,2.63,2.63,0,0,0,1.15.58,11,11,0,0,0,4.34.18,8.47,8.47,0,0,0,1.33-.27,12.65,12.65,0,0,0,1.27-.44c.41-.17.81-.35,1.18-.54s.72-.4,1-.6l.87-.57c.25-.17.48-.34.65-.48C631.23,204.8,631.43,204.61,631.43,204.61Z" transform="translate(-54.56 -64.2)"/><path class="cls-1" d="M631.75,204.19l1-.26c.6-.18,1.43-.48,2.39-.87a15.4,15.4,0,0,0,1.51-.7c.51-.26,1-.55,1.59-.87s1-.69,1.56-1.07c.25-.19.51-.38.75-.59s.47-.43.69-.65a6.31,6.31,0,0,1-.48.61,14.18,14.18,0,0,1-1.61,1.5l-.61.47c-.21.16-.45.31-.7.47-.5.32-1,.64-1.67,1a21.89,21.89,0,0,1-4.5,1.69Z" transform="translate(-54.56 -64.2)"/><path class="cls-1" d="M624.76,195.2a6.54,6.54,0,0,1,.18,1.75,8,8,0,0,1-.28,1.79,6.91,6.91,0,0,1-.95,2c-.24.34-.49.67-.74,1a9.73,9.73,0,0,1-.78.89,14.1,14.1,0,0,1-1.61,1.4c-1.06.72-2,1.07-2.55.85a.79.79,0,0,1-.47-.69,3.23,3.23,0,0,1,.18-1.25,14.28,14.28,0,0,1,2-3.55,11,11,0,0,1,.75-.91,10.74,10.74,0,0,1,.82-.83c.29-.26.57-.49.85-.71s.55-.43.81-.61.5-.35.73-.48l.58-.37Z" transform="translate(-54.56 -64.2)"/><path class="cls-1" d="M625.21,195.09s.15-.28.43-.74.64-1.11,1.12-1.82c.24-.35.48-.75.74-1.14s.56-.79.86-1.18a14.94,14.94,0,0,1,.92-1.18c.16-.19.34-.37.5-.55l.51-.54s-.18.11-.49.35a11.74,11.74,0,0,0-1.27,1.15l-.41.44c-.13.15-.29.31-.44.49a15.11,15.11,0,0,0-.94,1.21,34.66,34.66,0,0,0-2.17,3.35Z" transform="translate(-54.56 -64.2)"/><path class="cls-1" d="M638.5,197.81a4.14,4.14,0,0,0-.41-.14,7.59,7.59,0,0,0-1.11-.25,8.53,8.53,0,0,0-1.64-.06c-.3,0-.62.06-1,.11a9,9,0,0,0-1,.24,18.71,18.71,0,0,0-3.69,1.55c-1,.55-1.61,1.13-1.68,1.65s.45.86,1.37,1a8,8,0,0,0,1.64,0c.16,0,.33,0,.49-.06a4.54,4.54,0,0,0,.51-.09c.34-.07.7-.15,1.07-.26a8.4,8.4,0,0,0,1.1-.38,11,11,0,0,0,1-.54c.33-.19.64-.4.94-.6l.42-.31.39-.32c.49-.42.88-.8,1.16-1.08l.31-.34A.58.58,0,0,0,638.5,197.81Z" transform="translate(-54.56 -64.2)"/><path class="cls-1" d="M638.72,197.41l.77-.34.86-.42.52-.27.55-.32c.38-.22.78-.47,1.19-.75l.63-.43.62-.49c.41-.33.81-.68,1.21-1.06a7.73,7.73,0,0,0,.56-.58c.18-.2.35-.4.52-.61a5.9,5.9,0,0,1-.34.56c-.13.17-.27.39-.48.63s-.44.51-.72.8-.62.61-1,.94-.83.66-1.31,1a19.38,19.38,0,0,1-3.61,2Z" transform="translate(-54.56 -64.2)"/><path class="cls-1" d="M631.69,190.59s.06.14.14.39a6,6,0,0,1,.2,1.07,6.8,6.8,0,0,1,0,1.56,6.43,6.43,0,0,1-.19.91,6.72,6.72,0,0,1-.38.95,11.56,11.56,0,0,1-2.25,3.18c-.81.75-1.58,1.16-2.07,1s-.64-.73-.49-1.61a8.55,8.55,0,0,1,.43-1.5l.17-.41.18-.45c.13-.29.28-.6.43-.9a7.15,7.15,0,0,1,.54-.88,10,10,0,0,1,.6-.81c.21-.25.42-.49.64-.71l.62-.62c.39-.38.75-.68,1-.89l.32-.24Z" transform="translate(-54.56 -64.2)"/><path class="cls-1" d="M632.05,190.43s.1-.26.28-.69c.09-.21.2-.47.33-.75l.21-.45.22-.5c.15-.34.33-.7.52-1.06l.6-1.12c.21-.38.44-.76.68-1.12l.37-.54.39-.52a3.42,3.42,0,0,0-.39.36l-.43.46c-.17.19-.35.41-.55.67s-.41.57-.62.92-.46.71-.7,1.14a30.13,30.13,0,0,0-1.47,3.15Z" transform="translate(-54.56 -64.2)"/><path class="cls-1" d="M644,191.07a5.62,5.62,0,0,0-1.37-.15,7,7,0,0,0-3.15.67,14.81,14.81,0,0,0-1.69.87c-.26.15-.5.32-.73.47s-.45.3-.65.45c-.78.61-1.25,1.21-1.26,1.66s.5.7,1.33.7a9.09,9.09,0,0,0,3.21-.79,9.46,9.46,0,0,0,1.74-1.07c.13-.1.26-.2.38-.31l.36-.33c.22-.21.44-.43.63-.64a13,13,0,0,0,.89-1.07C643.89,191.25,644,191.07,644,191.07Z" transform="translate(-54.56 -64.2)"/><path class="cls-1" d="M644.14,190.7s.25-.13.65-.38l.71-.45c.27-.18.55-.4.86-.63a15.77,15.77,0,0,0,3.72-3.89,5.21,5.21,0,0,1-.24.52,9.65,9.65,0,0,1-.9,1.36c-.22.29-.47.6-.76.92s-.65.66-1,1-.82.71-1.31,1.06-1,.69-1.63,1Z" transform="translate(-54.56 -64.2)"/><path class="cls-1" d="M637.19,185.5a4.89,4.89,0,0,1,.48,1.26,5.77,5.77,0,0,1-.12,3.08,13.8,13.8,0,0,1-.73,1.7,7.33,7.33,0,0,1-.42.73c-.15.23-.31.44-.46.63-.61.77-1.22,1.23-1.68,1.18s-.65-.57-.62-1.35a9.73,9.73,0,0,1,.67-3,7.69,7.69,0,0,1,.79-1.63c.08-.13.17-.24.25-.36s.15-.24.23-.35.32-.43.47-.62c.31-.39.61-.69.81-.91S637.19,185.5,637.19,185.5Z" transform="translate(-54.56 -64.2)"/><path class="cls-1" d="M637.5,185.32s0-.24.17-.64l.21-.7c.09-.27.17-.57.28-.89a20.06,20.06,0,0,1,1.84-4.16,4.57,4.57,0,0,0-.31.36,9.45,9.45,0,0,0-.76,1.12,8.85,8.85,0,0,0-.46.88c-.17.33-.34.69-.5,1.09s-.33.86-.49,1.35-.33,1-.49,1.61Z" transform="translate(-54.56 -64.2)"/><path class="cls-1" d="M645.53,182a3.83,3.83,0,0,0-.4.2l-1,.61a10.44,10.44,0,0,0-1.32,1c-.12.1-.23.21-.34.32l-.35.33a9.72,9.72,0,0,0-.66.76c-.22.27-.41.54-.6.81s-.37.52-.53.77a11.27,11.27,0,0,0-.8,1.43c-.41.84-.54,1.51-.25,1.79s.93.11,1.76-.41a9.18,9.18,0,0,0,1.29-1.05c.23-.21.46-.45.69-.69s.45-.53.67-.81.42-.58.6-.87a5.72,5.72,0,0,0,.45-.89,9.67,9.67,0,0,0,.56-1.64,7.43,7.43,0,0,0,.22-1.2C645.53,182.21,645.53,182,645.53,182Z" transform="translate(-54.56 -64.2)"/><path class="cls-1" d="M650.05,173.68,649.4,175c-.2.38-.42.84-.68,1.31l-.82,1.49c-.14.25-.28.5-.43.74s-.29.49-.43.72l-.76,1.26c-.23.37-.44.66-.57.87l-.22.33.2.13.2.13.2-.35c.13-.22.32-.53.53-.91l.71-1.3c.12-.24.26-.49.39-.74s.26-.51.39-.77c.25-.52.51-1,.74-1.53s.43-.95.61-1.35Z" transform="translate(-54.56 -64.2)"/><path class="cls-1" d="M691.76,245.32l-2,1.49-.53.39-.29.21-.3.2-1.39.92-.77.52-.41.27-.44.27-1.87,1.12a75.35,75.35,0,0,1-10,4.91l-1.54.58-.79.29c-.27.1-.53.21-.81.29l-1.66.55c-.56.18-1.13.39-1.72.54l-1.78.49-.91.25-.92.22-1.89.43-.48.11-.49.09-1,.18c-.66.12-1.32.25-2,.36l-2,.28-1,.14-1.06.1-2.13.21a84.93,84.93,0,0,1-8.94.19,99.89,99.89,0,0,1-19.1-2.48l-2.45-.58-1.23-.3-1.22-.34-2.46-.68-2.46-.76-1.23-.38-1.23-.42-2.46-.83-2.44-.91-1.23-.45-1.21-.49-2.44-1-2.43-1c-1.62-.67-3.21-1.44-4.82-2.17L591.72,247c-.79-.39-1.6-.77-2.38-1.18-1.57-.81-3.16-1.61-4.71-2.46L582.29,242,580,240.75l-4.58-2.58c-3-1.72-6.08-3.47-9.07-5.19l-8.89-5.1c-2.94-1.64-5.85-3.27-8.73-4.79a166.24,166.24,0,0,0-17-7.89l-4.14-1.51-1-.37c-.34-.13-.69-.23-1-.34l-2-.65-2-.64-1-.31-1-.28L515.68,210l-.94-.27c-.31-.09-.62-.18-.93-.25l-1.85-.45-3.56-.88c-1.16-.31-2.3-.54-3.41-.78l-3.22-.71-1.54-.33-.75-.17-.74-.14c-1-.19-1.93-.37-2.83-.56l-5-1c-3-.53-5.39-1-7-1.28l-2.49-.47,2.52.23c1.64.16,4,.38,7.1.7l5.06.63c1.84.22,3.83.47,5.95.82l3.28.51c1.13.18,2.29.34,3.47.57l3.65.69,1.89.36c.32.06.63.13.95.21l1,.21,4,.91,1,.24,1,.27,2,.56,2.09.58c.35.1.71.18,1.06.3l1,.34,4.3,1.38,4.35,1.62,1.1.41,1.09.46,2.21.93,1.11.46c.37.16.74.31,1.11.49l2.2,1,2.23,1c.75.36,1.48.74,2.22,1.11l2.23,1.12c.38.19.75.37,1.12.57l1.11.59,4.48,2.39,4.49,2.47,4.5,2.52,9.09,5.11,4.59,2.55,2.3,1.28,2.28,1.24c1.52.85,3.07,1.63,4.61,2.43.77.41,1.56.78,2.33,1.16s1.55.78,2.33,1.14l2.35,1.1,1.17.54,1.18.52,2.36,1,2.37,1a142,142,0,0,0,19,6.31,104.72,104.72,0,0,0,18.4,2.94c3,.23,5.84.21,8.63.15l2.07-.11,1-.05,1-.09,2-.19c.66-.07,1.31-.17,2-.25a77.47,77.47,0,0,0,13.81-3.14A85.34,85.34,0,0,0,683.34,250l1.94-1,.45-.22.42-.24.81-.44,1.45-.8.33-.17.3-.19.56-.33Z" transform="translate(-54.56 -64.2)"/><path class="cls-1" d="M583.73,83.34v74A12.67,12.67,0,0,1,571.06,170h-5.88a6.1,6.1,0,0,0-6.1,6.1v15.75h17.27a33.91,33.91,0,0,0,33.91-33.91V83.34Z" transform="translate(-54.56 -64.2)"/><path class="cls-1" d="M554.61,191.82v-74a12.67,12.67,0,0,1,12.67-12.67h5.88a6.1,6.1,0,0,0,6.1-6.1V83.34H562a33.91,33.91,0,0,0-33.91,33.91v74.57Z" transform="translate(-54.56 -64.2)"/></svg>